<svg width="1920" height="947" viewBox="0 0 1920 947" fill="none" xmlns="http://www.w3.org/2000/svg">
<mask id="mask0_109_695" style="mask-type:alpha" maskUnits="userSpaceOnUse" x="0" y="0" width="1920" height="947">
<rect width="1920" height="947" fill="#D9D9D9"/>
</mask>
<g mask="url(#mask0_109_695)">
<path d="M0 437.972H959.95V-102H0V437.972Z" fill="#F0EEEC"/>
<path d="M499.224 13.094V331.077H468.626V20.6436C468.776 19.9937 468.826 19.3437 468.826 18.6437C468.826 17.9438 468.776 17.2938 468.626 16.6438C467.676 11.8941 463.476 8.24427 458.426 8.24427H198.74C196.39 8.09428 194.04 7.74429 191.79 7.19432C191.59 7.14433 191.44 7.09433 191.24 7.04433C174.841 2.79456 162.492 -11.5047 161.192 -28.9538V-102H191.79V-33.0536C191.79 -32.9036 191.79 -32.7536 191.79 -32.6036C191.79 -32.4536 191.79 -32.3036 191.79 -32.1536C191.99 -27.1539 195.74 -23.1041 200.59 -22.3541C201.09 -22.2541 201.639 -22.2541 202.189 -22.2541C202.739 -22.2541 203.239 -22.3041 203.789 -22.3541H466.526C467.576 -22.1542 468.626 -21.9542 469.626 -21.6542C475.375 -20.1043 480.625 -17.3544 485.075 -13.6046C492.824 -7.05493 498.124 2.39457 499.224 13.094Z" fill="#EBE6E2"/>
<path d="M672.315 411.923V437.972H641.817V419.473C641.967 418.823 642.017 418.173 642.017 417.473C642.017 416.773 641.967 416.123 641.817 415.473C640.867 410.723 636.717 407.124 631.667 407.124H506.074C503.724 406.974 501.374 406.624 499.174 406.074C498.974 406.024 498.824 405.974 498.624 405.924C482.275 401.674 469.926 387.425 468.676 370.076V314.628H499.174V365.926C499.174 366.076 499.174 366.226 499.174 366.376C499.174 366.526 499.174 366.676 499.174 366.826C499.374 371.776 503.124 375.875 507.924 376.575C508.424 376.675 508.974 376.675 509.523 376.675C510.073 376.675 510.573 376.625 511.123 376.575H639.717C640.767 376.775 641.767 376.975 642.817 377.275C648.566 378.825 653.816 381.575 658.216 385.275C665.915 391.824 671.215 401.274 672.315 411.923Z" fill="#EBE6E2"/>
<path d="M45.1977 388.025V437.972H75.6961V395.574C75.5461 394.924 75.4961 394.274 75.4961 393.574C75.4961 392.875 75.5461 392.225 75.6961 391.575C76.6461 386.825 80.7958 383.225 85.8456 383.225H237.488C239.838 383.075 242.187 382.725 244.387 382.175C244.587 382.125 244.737 382.075 244.937 382.025C261.286 377.775 273.636 363.526 274.886 346.177V197.035H244.387V342.027C244.387 342.177 244.387 342.327 244.387 342.477C244.387 342.627 244.387 342.777 244.387 342.927C244.187 347.877 240.438 351.977 235.638 352.677C235.138 352.777 234.588 352.777 234.038 352.777C233.488 352.777 232.988 352.727 232.438 352.677H77.896C76.846 352.877 75.8461 353.077 74.7962 353.377C69.0465 354.926 63.7967 357.676 59.397 361.376C51.5974 367.976 46.2976 377.375 45.1977 388.025Z" fill="#EBE6E2"/>
<path d="M76.896 -37.1534H0V-6.65497H69.3964C70.0464 -6.80496 70.6963 -6.85495 71.3963 -6.85495C72.0963 -6.85495 72.7462 -6.80496 73.3962 -6.65497C78.1459 -5.70502 81.7458 -1.55523 81.7458 3.49451V170.536C81.8957 172.886 82.2457 175.236 82.7957 177.435C82.8457 177.635 82.8957 177.785 82.9457 177.985C87.1955 194.335 101.445 206.684 118.794 207.934H473.725V177.435H122.894C122.744 177.435 122.594 177.435 122.444 177.435C122.294 177.435 122.144 177.435 121.994 177.435C117.044 177.235 112.944 173.486 112.244 168.686C112.144 168.186 112.144 167.636 112.144 167.086C112.144 166.536 112.194 166.036 112.244 165.486V-4.45508C112.044 -5.50502 111.844 -6.50498 111.544 -7.55492C109.994 -13.3046 107.244 -18.5543 103.545 -22.9541C96.995 -30.7537 87.5955 -36.0534 76.896 -37.1534Z" fill="#EBE6E2"/>
<path d="M246.537 11.7939C244.837 11.7939 243.437 10.3939 243.437 8.69403V-22.8043C243.437 -24.5042 244.837 -25.9042 246.537 -25.9042C248.237 -25.9042 249.637 -24.5042 249.637 -22.8043V8.69403C249.587 10.4439 248.237 11.7939 246.537 11.7939Z" fill="#EBE6E2"/>
<path d="M401.179 11.7939C399.479 11.7939 398.079 10.3939 398.079 8.69403V-22.8043C398.079 -24.5042 399.479 -25.9042 401.179 -25.9042C402.879 -25.9042 404.279 -24.5042 404.279 -22.8043V8.69403C404.229 10.4439 402.879 11.7939 401.179 11.7939Z" fill="#EBE6E2"/>
<path d="M301.534 211.134C299.834 211.134 298.435 209.734 298.435 208.034V176.535C298.435 174.836 299.834 173.436 301.534 173.436C303.234 173.436 304.634 174.836 304.634 176.535V208.034C304.584 209.734 303.234 211.134 301.534 211.134Z" fill="#EBE6E2"/>
<path d="M202.339 211.134C200.64 211.134 199.24 209.734 199.24 208.034V176.535C199.24 174.836 200.64 173.436 202.339 173.436C204.039 173.436 205.439 174.836 205.439 176.535V208.034C205.439 209.734 204.039 211.134 202.339 211.134Z" fill="#EBE6E2"/>
<path d="M167.041 211.134C165.341 211.134 163.942 209.734 163.942 208.034V176.535C163.942 174.836 165.341 173.436 167.041 173.436C168.741 173.436 170.141 174.836 170.141 176.535V208.034C170.141 209.734 168.741 211.134 167.041 211.134Z" fill="#EBE6E2"/>
<path d="M171.241 386.924C169.541 386.924 168.141 385.524 168.141 383.824V352.326C168.141 350.626 169.541 349.226 171.241 349.226C172.941 349.226 174.341 350.626 174.341 352.326V383.824C174.341 385.524 172.941 386.924 171.241 386.924Z" fill="#EBE6E2"/>
<path d="M135.943 386.924C134.243 386.924 132.843 385.524 132.843 383.824V352.326C132.843 350.626 134.243 349.226 135.943 349.226C137.643 349.226 139.043 350.626 139.043 352.326V383.824C139.043 385.524 137.643 386.924 135.943 386.924Z" fill="#EBE6E2"/>
<path d="M588.119 410.473C586.42 410.473 585.02 409.073 585.02 407.373V375.875C585.02 374.175 586.42 372.775 588.119 372.775C589.819 372.775 591.219 374.175 591.219 375.875V407.373C591.169 409.073 589.819 410.473 588.119 410.473Z" fill="#EBE6E2"/>
<path d="M552.821 410.473C551.121 410.473 549.721 409.073 549.721 407.373V375.875C549.721 374.175 551.121 372.775 552.821 372.775C554.521 372.775 555.921 374.175 555.921 375.875V407.373C555.871 409.073 554.521 410.473 552.821 410.473Z" fill="#EBE6E2"/>
<path d="M241.188 295.079C241.188 293.379 242.587 291.98 244.287 291.98H275.786C277.486 291.98 278.886 293.379 278.886 295.079C278.886 296.779 277.486 298.179 275.786 298.179H244.287C242.537 298.179 241.188 296.829 241.188 295.079Z" fill="#EBE6E2"/>
<path d="M241.188 259.781C241.188 258.081 242.587 256.681 244.287 256.681H275.786C277.486 256.681 278.886 258.081 278.886 259.781C278.886 261.481 277.486 262.881 275.786 262.881H244.287C242.537 262.881 241.188 261.481 241.188 259.781Z" fill="#EBE6E2"/>
<path d="M421.978 211.134C420.278 211.134 418.878 209.734 418.878 208.034V176.535C418.878 174.836 420.278 173.436 421.978 173.436C423.678 173.436 425.078 174.836 425.078 176.535V208.034C425.078 209.734 423.678 211.134 421.978 211.134Z" fill="#EBE6E2"/>
<path d="M465.126 75.0908C465.126 73.3908 466.526 71.9909 468.226 71.9909H499.724C501.424 71.9909 502.824 73.3908 502.824 75.0908C502.824 76.7907 501.424 78.1906 499.724 78.1906H468.226C466.476 78.1906 465.126 76.7907 465.126 75.0908Z" fill="#EBE6E2"/>
<path d="M77.9459 117.639C77.9459 115.939 79.3459 114.539 81.0458 114.539H112.544C114.244 114.539 115.644 115.939 115.644 117.639C115.644 119.338 114.244 120.738 112.544 120.738H81.0458C79.3459 120.688 77.9459 119.338 77.9459 117.639Z" fill="#EBE6E2"/>
<path d="M77.9459 58.4914C77.9459 56.7915 79.3459 55.3915 81.0458 55.3915H112.544C114.244 55.3915 115.644 56.7915 115.644 58.4914C115.644 60.1913 114.244 61.5912 112.544 61.5912H81.0458C79.3459 61.5912 77.9459 60.1913 77.9459 58.4914Z" fill="#EBE6E2"/>
<path d="M465.126 248.882C465.126 247.182 466.526 245.782 468.226 245.782H499.724C501.424 245.782 502.824 247.182 502.824 248.882C502.824 250.582 501.424 251.982 499.724 251.982H468.226C466.476 251.932 465.126 250.582 465.126 248.882Z" fill="#EBE6E2"/>
<path d="M465.126 323.228C465.126 321.528 466.526 320.128 468.226 320.128H499.724C501.424 320.128 502.824 321.528 502.824 323.228C502.824 324.928 501.424 326.328 499.724 326.328H468.226C466.476 326.328 465.126 324.928 465.126 323.228Z" fill="#EBE6E2"/>
<path d="M778.06 207.184V437.972H808.658V214.734C808.508 214.084 808.458 213.434 808.458 212.734C808.458 212.034 808.508 211.384 808.658 210.734C809.608 205.984 813.808 202.334 818.857 202.334H959.95V171.736H810.808C809.758 171.936 808.708 172.136 807.708 172.436C801.958 173.986 796.709 176.736 792.259 180.485C784.459 187.035 779.159 196.485 778.06 207.184Z" fill="#EBE6E2"/>
<path d="M544.422 -34.7035V-102H574.92V-42.2531C574.77 -41.6031 574.72 -40.9532 574.72 -40.2532C574.72 -39.5532 574.77 -38.9033 574.92 -38.2533C575.87 -33.5036 580.02 -29.9038 585.069 -29.9038H736.762C739.111 -29.7538 741.461 -29.4038 743.661 -28.8538C743.861 -28.8038 744.011 -28.7538 744.211 -28.7038C760.56 -24.454 772.91 -10.2048 774.16 7.14433V46.9422H743.661V11.2941C743.661 11.1441 743.661 10.9941 743.661 10.8441C743.661 10.6941 743.661 10.5441 743.661 10.3941C743.461 5.44441 739.711 1.34463 734.912 0.644661C734.412 0.544662 733.862 0.54467 733.312 0.54467C732.762 0.54467 732.262 0.594666 731.712 0.644661H577.07C576.02 0.444672 575.02 0.244675 573.97 -0.0553055C568.22 -1.60522 562.971 -4.35509 558.571 -8.05489C550.821 -14.6545 545.522 -24.0541 544.422 -34.7035Z" fill="#EBE6E2"/>
<path d="M575.07 290.53H498.174V260.031H567.57C568.22 260.181 568.87 260.231 569.57 260.231C570.27 260.231 570.92 260.181 571.57 260.031C576.32 259.081 579.92 254.932 579.92 249.882V82.8406C580.07 80.4907 580.42 78.1408 580.97 75.9409C581.02 75.7409 581.07 75.5909 581.12 75.3909C585.37 59.0418 599.619 46.6924 616.968 45.4425H959.95V75.9409H621.068C620.918 75.9409 620.768 75.9409 620.618 75.9409C620.468 75.9409 620.318 75.9409 620.168 75.9409C615.218 76.1409 611.118 79.8907 610.418 84.6905C610.318 85.1904 610.318 85.7404 610.318 86.2904C610.318 86.8404 610.368 87.3403 610.418 87.8903V257.931C610.218 258.981 610.018 259.981 609.718 261.031C608.168 266.781 605.418 272.031 601.719 276.43C595.169 284.18 585.719 289.43 575.07 290.53Z" fill="#EBE6E2"/>
<path d="M800.758 175.685C799.058 175.685 797.658 177.085 797.658 178.785V210.284C797.658 211.983 799.058 213.383 800.758 213.383C802.458 213.383 803.858 211.983 803.858 210.284V178.785C803.808 177.085 802.458 175.685 800.758 175.685Z" fill="#EBE6E2"/>
<path d="M824.007 41.4423C822.307 41.4423 820.907 42.8423 820.907 44.5422V76.0405C820.907 77.7404 822.307 79.1404 824.007 79.1404C825.707 79.1404 827.107 77.7404 827.107 76.0405V44.5422C827.057 42.7923 825.707 41.4423 824.007 41.4423Z" fill="#EBE6E2"/>
<path d="M670.465 42.2424C668.765 42.2424 667.365 43.6424 667.365 45.3423V76.8406C667.365 78.5406 668.765 79.9405 670.465 79.9405C672.165 79.9405 673.565 78.5406 673.565 76.8406V45.3423C673.565 43.6424 672.165 42.2424 670.465 42.2424Z" fill="#EBE6E2"/>
<path d="M635.167 42.2424C633.467 42.2424 632.067 43.6424 632.067 45.3423V76.8406C632.067 78.5406 633.467 79.9405 635.167 79.9405C636.867 79.9405 638.267 78.5406 638.267 76.8406V45.3423C638.267 43.6424 636.867 42.2424 635.167 42.2424Z" fill="#EBE6E2"/>
<path d="M740.362 11.7939C740.362 13.4938 741.761 14.8938 743.461 14.8938H774.96C776.66 14.8938 778.06 13.4938 778.06 11.7939C778.06 10.094 776.66 8.69409 774.96 8.69409H743.461C741.761 8.74409 740.362 10.094 740.362 11.7939Z" fill="#EBE6E2"/>
<path d="M688.264 4.84455C689.964 4.84455 691.364 3.44463 691.364 1.74471V-29.7536C691.364 -31.4536 689.964 -32.8535 688.264 -32.8535C686.564 -32.8535 685.164 -31.4536 685.164 -29.7536V1.74471C685.164 3.44463 686.564 4.84455 688.264 4.84455Z" fill="#EBE6E2"/>
<path d="M614.818 4.84455C616.518 4.84455 617.918 3.44463 617.918 1.74471V-29.7536C617.918 -31.4536 616.518 -32.8535 614.818 -32.8535C613.118 -32.8535 611.718 -31.4536 611.718 -29.7536V1.74471C611.768 3.44463 613.118 4.84455 614.818 4.84455Z" fill="#EBE6E2"/>
<path d="M577.17 127.038C577.17 128.738 578.57 130.138 580.27 130.138H611.768C613.468 130.138 614.868 128.738 614.868 127.038C614.868 125.338 613.468 123.938 611.768 123.938H580.27C578.52 123.938 577.17 125.338 577.17 127.038Z" fill="#EBE6E2"/>
<path d="M921.202 167.986C919.502 167.986 918.102 169.386 918.102 171.086V202.584C918.102 204.284 919.502 205.684 921.202 205.684C922.902 205.684 924.302 204.284 924.302 202.584V171.086C924.302 169.386 922.902 167.986 921.202 167.986Z" fill="#EBE6E2"/>
<path d="M577.17 195.935C577.17 197.634 578.57 199.034 580.27 199.034H611.768C613.468 199.034 614.868 197.634 614.868 195.935C614.868 194.235 613.468 192.835 611.768 192.835H580.27C578.52 192.885 577.17 194.235 577.17 195.935Z" fill="#EBE6E2"/>
<path d="M774.01 328.327C774.01 330.027 775.41 331.427 777.11 331.427H808.608C810.308 331.427 811.708 330.027 811.708 328.327C811.708 326.628 810.308 325.228 808.608 325.228H777.11C775.36 325.228 774.01 326.628 774.01 328.327Z" fill="#EBE6E2"/>
<path d="M959.95 -45.5031H925.802C923.452 -45.3531 921.102 -45.0031 918.902 -44.4531C918.702 -44.4031 918.552 -44.3531 918.352 -44.3031C902.003 -40.0533 889.654 -25.8041 888.404 -8.45498V46.9921H918.902V-4.30519C918.902 -4.45519 918.902 -4.60518 918.902 -4.75517C918.902 -4.90516 918.902 -5.05515 918.902 -5.20514C919.102 -10.1549 922.852 -14.2547 927.652 -14.9546C928.152 -15.0546 928.702 -15.0546 929.252 -15.0546C929.802 -15.0546 930.302 -15.0046 930.852 -14.9546H960V-45.5031H959.95Z" fill="#EBE6E2"/>
<path d="M872.955 167.986C871.255 167.986 869.855 169.386 869.855 171.086V202.584C869.855 204.284 871.255 205.684 872.955 205.684C874.655 205.684 876.054 204.284 876.054 202.584V171.086C876.054 169.386 874.655 167.986 872.955 167.986Z" fill="#EBE6E2"/>
<path d="M774.01 286.48C774.01 288.18 775.41 289.58 777.11 289.58H808.608C810.308 289.58 811.708 288.18 811.708 286.48C811.708 284.78 810.308 283.38 808.608 283.38H777.11C775.36 283.38 774.01 284.78 774.01 286.48Z" fill="#EBE6E2"/>
<path d="M884.854 38.3429C884.854 40.0428 886.254 41.4427 887.954 41.4427H919.452C921.152 41.4427 922.552 40.0428 922.552 38.3429C922.552 36.643 921.152 35.243 919.452 35.243H887.954C886.254 35.243 884.854 36.643 884.854 38.3429Z" fill="#EBE6E2"/>
<path d="M0 437.212H959.95V977.184H0V437.212Z" fill="#F0EEEC"/>
<path d="M157.542 930.436C157.542 932.136 158.942 933.536 160.642 933.536H192.14C193.84 933.536 195.24 932.136 195.24 930.436C195.24 928.736 193.84 927.336 192.14 927.336H160.642C158.942 927.386 157.542 928.736 157.542 930.436Z" fill="#EBE6E2"/>
<path d="M499.224 862.09V544.106H468.626V854.54C468.776 855.19 468.826 855.84 468.826 856.54C468.826 857.24 468.776 857.89 468.626 858.54C467.676 863.29 463.476 866.94 458.426 866.94H198.74C196.39 867.09 194.04 867.44 191.79 867.99C191.59 868.04 191.44 868.09 191.24 868.14C174.841 872.389 162.492 886.689 161.192 904.138V977.184H191.79V908.237C191.79 908.087 191.79 907.937 191.79 907.787C191.79 907.637 191.79 907.487 191.79 907.337C191.99 902.338 195.74 898.288 200.59 897.538C201.09 897.438 201.639 897.438 202.189 897.438C202.739 897.438 203.239 897.488 203.789 897.538H466.526C467.576 897.338 468.626 897.138 469.626 896.838C475.375 895.288 480.625 892.538 485.075 888.788C492.824 882.239 498.124 872.789 499.224 862.09Z" fill="#EBE6E2"/>
<path d="M672.315 463.26V437.212H641.817V455.711C641.967 456.361 642.017 457.011 642.017 457.711C642.017 458.411 641.967 459.061 641.817 459.711C640.867 464.46 636.717 468.06 631.667 468.06H506.074C503.724 468.21 501.374 468.56 499.174 469.11C498.974 469.16 498.824 469.21 498.624 469.26C482.275 473.51 469.926 487.759 468.676 505.108V560.555H499.174V509.258C499.174 509.108 499.174 508.958 499.174 508.808C499.174 508.658 499.174 508.508 499.174 508.358C499.374 503.408 503.124 499.309 507.924 498.609C508.424 498.509 508.974 498.509 509.523 498.509C510.073 498.509 510.573 498.559 511.123 498.609H639.717C640.767 498.409 641.767 498.209 642.817 497.909C648.566 496.359 653.816 493.609 658.216 489.909C665.915 483.359 671.215 473.91 672.315 463.26Z" fill="#EBE6E2"/>
<path d="M45.1977 487.159V437.212H75.6961V479.61C75.5461 480.26 75.4961 480.91 75.4961 481.609C75.4961 482.309 75.5461 482.959 75.6961 483.609C76.6461 488.359 80.7958 491.959 85.8456 491.959H237.488C239.838 492.109 242.187 492.459 244.387 493.009C244.587 493.059 244.737 493.109 244.937 493.159C261.286 497.409 273.636 511.658 274.886 529.007V678.149H244.387V533.157C244.387 533.007 244.387 532.857 244.387 532.707C244.387 532.557 244.387 532.407 244.387 532.257C244.187 527.307 240.438 523.207 235.638 522.507C235.138 522.407 234.588 522.407 234.038 522.407C233.488 522.407 232.988 522.457 232.438 522.507H77.896C76.846 522.307 75.8461 522.107 74.7962 521.807C69.0465 520.257 63.7967 517.508 59.397 513.808C51.5974 507.208 46.2976 497.809 45.1977 487.159Z" fill="#EBE6E2"/>
<path d="M76.896 912.337H0V881.839H69.3964C70.0464 881.989 70.6963 882.039 71.3963 882.039C72.0963 882.039 72.7462 881.989 73.3962 881.839C78.1459 880.889 81.7458 876.739 81.7458 871.689V704.648C81.8957 702.298 82.2457 699.948 82.7957 697.748C82.8457 697.548 82.8957 697.398 82.9457 697.198C87.1955 680.849 101.445 668.5 118.794 667.25H473.725V697.748H122.894C122.744 697.748 122.594 697.748 122.444 697.748C122.294 697.748 122.144 697.748 121.994 697.748C117.044 697.948 112.944 701.698 112.244 706.498C112.144 706.998 112.144 707.548 112.144 708.098C112.144 708.648 112.194 709.148 112.244 709.698V879.639C112.044 880.689 111.844 881.689 111.544 882.739C109.994 888.489 107.244 893.738 103.545 898.138C96.995 905.938 87.5955 911.237 76.896 912.337Z" fill="#EBE6E2"/>
<path d="M246.537 863.39C244.837 863.39 243.437 864.79 243.437 866.49V897.988C243.437 899.688 244.837 901.088 246.537 901.088C248.237 901.088 249.637 899.688 249.637 897.988V866.49C249.587 864.74 248.237 863.39 246.537 863.39Z" fill="#EBE6E2"/>
<path d="M401.179 863.39C399.479 863.39 398.079 864.79 398.079 866.49V897.988C398.079 899.688 399.479 901.088 401.179 901.088C402.879 901.088 404.279 899.688 404.279 897.988V866.49C404.229 864.74 402.879 863.39 401.179 863.39Z" fill="#EBE6E2"/>
<path d="M301.534 664.05C299.834 664.05 298.435 665.45 298.435 667.15V698.648C298.435 700.348 299.834 701.748 301.534 701.748C303.234 701.748 304.634 700.348 304.634 698.648V667.15C304.584 665.45 303.234 664.05 301.534 664.05Z" fill="#EBE6E2"/>
<path d="M202.339 664.05C200.64 664.05 199.24 665.45 199.24 667.15V698.648C199.24 700.348 200.64 701.748 202.339 701.748C204.039 701.748 205.439 700.348 205.439 698.648V667.15C205.439 665.45 204.039 664.05 202.339 664.05Z" fill="#EBE6E2"/>
<path d="M167.041 664.05C165.341 664.05 163.942 665.45 163.942 667.15V698.648C163.942 700.348 165.341 701.748 167.041 701.748C168.741 701.748 170.141 700.348 170.141 698.648V667.15C170.141 665.45 168.741 664.05 167.041 664.05Z" fill="#EBE6E2"/>
<path d="M171.241 488.259C169.541 488.259 168.141 489.659 168.141 491.359V522.858C168.141 524.557 169.541 525.957 171.241 525.957C172.941 525.957 174.341 524.557 174.341 522.858V491.359C174.341 489.659 172.941 488.259 171.241 488.259Z" fill="#EBE6E2"/>
<path d="M135.943 488.259C134.243 488.259 132.843 489.659 132.843 491.359V522.858C132.843 524.557 134.243 525.957 135.943 525.957C137.643 525.957 139.043 524.557 139.043 522.858V491.359C139.043 489.659 137.643 488.259 135.943 488.259Z" fill="#EBE6E2"/>
<path d="M588.119 464.711C586.42 464.711 585.02 466.111 585.02 467.81V499.309C585.02 501.009 586.42 502.409 588.119 502.409C589.819 502.409 591.219 501.009 591.219 499.309V467.81C591.169 466.111 589.819 464.711 588.119 464.711Z" fill="#EBE6E2"/>
<path d="M552.821 464.711C551.121 464.711 549.721 466.111 549.721 467.81V499.309C549.721 501.009 551.121 502.409 552.821 502.409C554.521 502.409 555.921 501.009 555.921 499.309V467.81C555.871 466.111 554.521 464.711 552.821 464.711Z" fill="#EBE6E2"/>
<path d="M241.188 580.105C241.188 581.804 242.587 583.204 244.287 583.204H275.786C277.486 583.204 278.886 581.804 278.886 580.105C278.886 578.405 277.486 577.005 275.786 577.005H244.287C242.537 577.005 241.188 578.355 241.188 580.105Z" fill="#EBE6E2"/>
<path d="M241.188 615.403C241.188 617.103 242.587 618.503 244.287 618.503H275.786C277.486 618.503 278.886 617.103 278.886 615.403C278.886 613.703 277.486 612.303 275.786 612.303H244.287C242.537 612.303 241.188 613.703 241.188 615.403Z" fill="#EBE6E2"/>
<path d="M421.978 664.05C420.278 664.05 418.878 665.45 418.878 667.15V698.648C418.878 700.348 420.278 701.748 421.978 701.748C423.678 701.748 425.078 700.348 425.078 698.648V667.15C425.078 665.45 423.678 664.05 421.978 664.05Z" fill="#EBE6E2"/>
<path d="M465.126 800.093C465.126 801.793 466.526 803.193 468.226 803.193H499.724C501.424 803.193 502.824 801.793 502.824 800.093C502.824 798.393 501.424 796.993 499.724 796.993H468.226C466.476 796.993 465.126 798.393 465.126 800.093Z" fill="#EBE6E2"/>
<path d="M77.9459 757.545C77.9459 759.245 79.3459 760.645 81.0458 760.645H112.544C114.244 760.645 115.644 759.245 115.644 757.545C115.644 755.845 114.244 754.445 112.544 754.445H81.0458C79.3459 754.495 77.9459 755.845 77.9459 757.545Z" fill="#EBE6E2"/>
<path d="M77.9459 816.693C77.9459 818.392 79.3459 819.792 81.0458 819.792H112.544C114.244 819.792 115.644 818.392 115.644 816.693C115.644 814.993 114.244 813.593 112.544 813.593H81.0458C79.3459 813.593 77.9459 814.993 77.9459 816.693Z" fill="#EBE6E2"/>
<path d="M465.126 626.302C465.126 628.002 466.526 629.402 468.226 629.402H499.724C501.424 629.402 502.824 628.002 502.824 626.302C502.824 624.602 501.424 623.202 499.724 623.202H468.226C466.476 623.252 465.126 624.602 465.126 626.302Z" fill="#EBE6E2"/>
<path d="M465.126 551.956C465.126 553.656 466.526 555.056 468.226 555.056H499.724C501.424 555.056 502.824 553.656 502.824 551.956C502.824 550.256 501.424 548.856 499.724 548.856H468.226C466.476 548.856 465.126 550.256 465.126 551.956Z" fill="#EBE6E2"/>
<path d="M778.06 668V437.212H808.658V660.45C808.508 661.1 808.458 661.75 808.458 662.45C808.458 663.15 808.508 663.8 808.658 664.45C809.608 669.2 813.808 672.85 818.857 672.85H959.95V703.448H810.808C809.758 703.248 808.708 703.048 807.708 702.748C801.958 701.198 796.709 698.448 792.259 694.699C784.459 688.149 779.159 678.699 778.06 668Z" fill="#EBE6E2"/>
<path d="M544.422 909.887V977.184H574.92V917.437C574.77 916.787 574.72 916.137 574.72 915.437C574.72 914.737 574.77 914.087 574.92 913.437C575.87 908.687 580.02 905.088 585.069 905.088H736.762C739.111 904.938 741.461 904.588 743.661 904.038C743.861 903.988 744.011 903.938 744.211 903.888C760.56 899.638 772.91 885.389 774.16 868.04V828.242H743.661V863.89C743.661 864.04 743.661 864.19 743.661 864.34C743.661 864.49 743.661 864.64 743.661 864.79C743.461 869.739 739.711 873.839 734.912 874.539C734.412 874.639 733.862 874.639 733.312 874.639C732.762 874.639 732.262 874.589 731.712 874.539H577.07C576.02 874.739 575.02 874.939 573.97 875.239C568.22 876.789 562.971 879.539 558.571 883.239C550.821 889.838 545.522 899.238 544.422 909.887Z" fill="#EBE6E2"/>
<path d="M575.07 584.654H498.174V615.153H567.57C568.22 615.003 568.87 614.953 569.57 614.953C570.27 614.953 570.92 615.003 571.57 615.153C576.32 616.103 579.92 620.252 579.92 625.302V792.343C580.07 794.693 580.42 797.043 580.97 799.243C581.02 799.443 581.07 799.593 581.12 799.793C585.37 816.142 599.619 828.492 616.968 829.741H959.95V799.243H621.068C620.918 799.243 620.768 799.243 620.618 799.243C620.468 799.243 620.318 799.243 620.168 799.243C615.218 799.043 611.118 795.293 610.418 790.493C610.318 789.994 610.318 789.444 610.318 788.894C610.318 788.344 610.368 787.844 610.418 787.294V617.253C610.218 616.203 610.018 615.203 609.718 614.153C608.168 608.403 605.418 603.153 601.719 598.753C595.169 591.004 585.719 585.754 575.07 584.654Z" fill="#EBE6E2"/>
<path d="M800.758 699.499C799.058 699.499 797.658 698.099 797.658 696.399V664.9C797.658 663.2 799.058 661.801 800.758 661.801C802.458 661.801 803.858 663.2 803.858 664.9V696.399C803.808 698.099 802.458 699.499 800.758 699.499Z" fill="#EBE6E2"/>
<path d="M824.007 833.741C822.307 833.741 820.907 832.341 820.907 830.641V799.143C820.907 797.443 822.307 796.043 824.007 796.043C825.707 796.043 827.107 797.443 827.107 799.143V830.641C827.057 832.391 825.707 833.741 824.007 833.741Z" fill="#EBE6E2"/>
<path d="M670.465 832.942C668.765 832.942 667.365 831.542 667.365 829.842V798.343C667.365 796.643 668.765 795.243 670.465 795.243C672.165 795.243 673.565 796.643 673.565 798.343V829.842C673.565 831.542 672.165 832.942 670.465 832.942Z" fill="#EBE6E2"/>
<path d="M635.167 832.942C633.467 832.942 632.067 831.542 632.067 829.842V798.343C632.067 796.643 633.467 795.243 635.167 795.243C636.867 795.243 638.267 796.643 638.267 798.343V829.842C638.267 831.542 636.867 832.942 635.167 832.942Z" fill="#EBE6E2"/>
<path d="M740.362 863.39C740.362 861.69 741.761 860.29 743.461 860.29H774.96C776.66 860.29 778.06 861.69 778.06 863.39C778.06 865.09 776.66 866.49 774.96 866.49H743.461C741.761 866.44 740.362 865.09 740.362 863.39Z" fill="#EBE6E2"/>
<path d="M540.522 935.136C540.522 933.436 541.922 932.036 543.622 932.036H575.12C576.82 932.036 578.22 933.436 578.22 935.136C578.22 936.836 576.82 938.236 575.12 938.236H543.622C541.872 938.236 540.522 936.836 540.522 935.136Z" fill="#EBE6E2"/>
<path d="M688.264 870.339C689.964 870.339 691.364 871.739 691.364 873.439V904.938C691.364 906.637 689.964 908.037 688.264 908.037C686.564 908.037 685.164 906.637 685.164 904.938V873.439C685.164 871.739 686.564 870.339 688.264 870.339Z" fill="#EBE6E2"/>
<path d="M614.818 870.339C616.518 870.339 617.918 871.739 617.918 873.439V904.938C617.918 906.637 616.518 908.037 614.818 908.037C613.118 908.037 611.718 906.637 611.718 904.938V873.439C611.768 871.739 613.118 870.339 614.818 870.339Z" fill="#EBE6E2"/>
<path d="M577.17 748.146C577.17 746.446 578.57 745.046 580.27 745.046H611.768C613.468 745.046 614.868 746.446 614.868 748.146C614.868 749.846 613.468 751.246 611.768 751.246H580.27C578.52 751.246 577.17 749.846 577.17 748.146Z" fill="#EBE6E2"/>
<path d="M921.202 707.198C919.502 707.198 918.102 705.798 918.102 704.098V672.6C918.102 670.9 919.502 669.5 921.202 669.5C922.902 669.5 924.302 670.9 924.302 672.6V704.098C924.302 705.798 922.902 707.198 921.202 707.198Z" fill="#EBE6E2"/>
<path d="M577.17 679.249C577.17 677.549 578.57 676.15 580.27 676.15H611.768C613.468 676.15 614.868 677.549 614.868 679.249C614.868 680.949 613.468 682.349 611.768 682.349H580.27C578.52 682.299 577.17 680.949 577.17 679.249Z" fill="#EBE6E2"/>
<path d="M774.01 546.856C774.01 545.157 775.41 543.757 777.11 543.757H808.608C810.308 543.757 811.708 545.157 811.708 546.856C811.708 548.556 810.308 549.956 808.608 549.956H777.11C775.36 549.956 774.01 548.556 774.01 546.856Z" fill="#EBE6E2"/>
<path d="M959.95 920.687H925.802C923.452 920.537 921.102 920.187 918.902 919.637C918.702 919.587 918.552 919.537 918.352 919.487C902.003 915.237 889.654 900.988 888.404 883.639V828.192H918.902V879.489C918.902 879.639 918.902 879.789 918.902 879.939C918.902 880.089 918.902 880.239 918.902 880.389C919.102 885.339 922.852 889.439 927.652 890.138C928.152 890.238 928.702 890.238 929.252 890.238C929.802 890.238 930.302 890.188 930.852 890.138H960V920.687H959.95Z" fill="#EBE6E2"/>
<path d="M872.955 707.198C871.255 707.198 869.855 705.798 869.855 704.098V672.6C869.855 670.9 871.255 669.5 872.955 669.5C874.655 669.5 876.054 670.9 876.054 672.6V704.098C876.054 705.798 874.655 707.198 872.955 707.198Z" fill="#EBE6E2"/>
<path d="M774.01 588.704C774.01 587.004 775.41 585.604 777.11 585.604H808.608C810.308 585.604 811.708 587.004 811.708 588.704C811.708 590.404 810.308 591.804 808.608 591.804H777.11C775.36 591.804 774.01 590.404 774.01 588.704Z" fill="#EBE6E2"/>
<path d="M884.854 836.841C884.854 835.141 886.254 833.741 887.954 833.741H919.452C921.152 833.741 922.552 835.141 922.552 836.841C922.552 838.541 921.152 839.941 919.452 839.941H887.954C886.254 839.941 884.854 838.541 884.854 836.841Z" fill="#EBE6E2"/>
<path d="M1920 437.972H960.05V-102H1920V437.972Z" fill="#F0EEEC"/>
<path d="M1420.78 13.094V331.077H1451.37V20.6436C1451.22 19.9937 1451.17 19.3437 1451.17 18.6437C1451.17 17.9438 1451.22 17.2938 1451.37 16.6438C1452.32 11.8941 1456.52 8.24427 1461.57 8.24427H1721.26C1723.61 8.09428 1725.96 7.74429 1728.21 7.19432C1728.41 7.14433 1728.56 7.09433 1728.76 7.04433C1745.16 2.79456 1757.51 -11.5047 1758.81 -28.9538V-102H1728.21V-33.0536C1728.21 -32.9036 1728.21 -32.7536 1728.21 -32.6036C1728.21 -32.4536 1728.21 -32.3036 1728.21 -32.1536C1728.01 -27.1539 1724.26 -23.1041 1719.41 -22.3541C1718.91 -22.2541 1718.36 -22.2541 1717.81 -22.2541C1717.26 -22.2541 1716.76 -22.3041 1716.21 -22.3541H1453.47C1452.42 -22.1542 1451.37 -21.9542 1450.37 -21.6542C1444.62 -20.1043 1439.38 -17.3544 1434.93 -13.6046C1427.18 -7.05493 1421.88 2.39457 1420.78 13.094Z" fill="#EBE6E2"/>
<path d="M1247.68 411.923V437.972H1278.18V419.473C1278.03 418.823 1277.98 418.173 1277.98 417.473C1277.98 416.773 1278.03 416.123 1278.18 415.473C1279.13 410.723 1283.28 407.124 1288.33 407.124H1413.93C1416.28 406.974 1418.63 406.624 1420.83 406.074C1421.03 406.024 1421.18 405.974 1421.38 405.924C1437.73 401.674 1450.07 387.425 1451.32 370.076V314.628H1420.83V365.926C1420.83 366.076 1420.83 366.226 1420.83 366.376C1420.83 366.526 1420.83 366.676 1420.83 366.826C1420.63 371.776 1416.88 375.875 1412.08 376.575C1411.58 376.675 1411.03 376.675 1410.48 376.675C1409.93 376.675 1409.43 376.625 1408.88 376.575H1280.28C1279.23 376.775 1278.23 376.975 1277.18 377.275C1271.43 378.825 1266.18 381.575 1261.78 385.275C1254.08 391.824 1248.78 401.274 1247.68 411.923Z" fill="#EBE6E2"/>
<path d="M1874.8 388.025V437.972H1844.3V395.574C1844.45 394.924 1844.5 394.274 1844.5 393.574C1844.5 392.875 1844.45 392.225 1844.3 391.575C1843.35 386.825 1839.2 383.225 1834.15 383.225H1682.51C1680.16 383.075 1677.81 382.725 1675.61 382.175C1675.41 382.125 1675.26 382.075 1675.06 382.025C1658.71 377.775 1646.36 363.526 1645.11 346.177V197.035H1675.61V342.027C1675.61 342.177 1675.61 342.327 1675.61 342.477C1675.61 342.627 1675.61 342.777 1675.61 342.927C1675.81 347.877 1679.56 351.977 1684.36 352.677C1684.86 352.777 1685.41 352.777 1685.96 352.777C1686.51 352.777 1687.01 352.727 1687.56 352.677H1842.1C1843.15 352.877 1844.15 353.077 1845.2 353.377C1850.95 354.926 1856.2 357.676 1860.6 361.376C1868.4 367.976 1873.7 377.375 1874.8 388.025Z" fill="#EBE6E2"/>
<path d="M1843.1 -37.1534H1920V-6.65497H1850.6C1849.95 -6.80496 1849.3 -6.85495 1848.6 -6.85495C1847.9 -6.85495 1847.25 -6.80496 1846.6 -6.65497C1841.85 -5.70502 1838.25 -1.55523 1838.25 3.49451V170.536C1838.1 172.886 1837.75 175.236 1837.2 177.435C1837.15 177.635 1837.1 177.785 1837.05 177.985C1832.8 194.335 1818.56 206.684 1801.21 207.934H1446.27V177.435H1797.11C1797.26 177.435 1797.41 177.435 1797.56 177.435C1797.71 177.435 1797.86 177.435 1798.01 177.435C1802.96 177.235 1807.06 173.486 1807.76 168.686C1807.86 168.186 1807.86 167.636 1807.86 167.086C1807.86 166.536 1807.81 166.036 1807.76 165.486V-4.45508C1807.96 -5.50502 1808.16 -6.50498 1808.46 -7.55492C1810.01 -13.3046 1812.76 -18.5543 1816.46 -22.9541C1823.01 -30.7537 1832.4 -36.0534 1843.1 -37.1534Z" fill="#EBE6E2"/>
<path d="M1673.46 11.7939C1675.16 11.7939 1676.56 10.3939 1676.56 8.69403V-22.8043C1676.56 -24.5042 1675.16 -25.9042 1673.46 -25.9042C1671.76 -25.9042 1670.36 -24.5042 1670.36 -22.8043V8.69403C1670.41 10.4439 1671.76 11.7939 1673.46 11.7939Z" fill="#EBE6E2"/>
<path d="M1518.82 11.7939C1520.52 11.7939 1521.92 10.3939 1521.92 8.69403V-22.8043C1521.92 -24.5042 1520.52 -25.9042 1518.82 -25.9042C1517.12 -25.9042 1515.72 -24.5042 1515.72 -22.8043V8.69403C1515.77 10.4439 1517.12 11.7939 1518.82 11.7939Z" fill="#EBE6E2"/>
<path d="M1618.47 211.134C1620.17 211.134 1621.57 209.734 1621.57 208.034V176.535C1621.57 174.836 1620.17 173.436 1618.47 173.436C1616.77 173.436 1615.37 174.836 1615.37 176.535V208.034C1615.42 209.734 1616.77 211.134 1618.47 211.134Z" fill="#EBE6E2"/>
<path d="M1717.66 211.134C1719.36 211.134 1720.76 209.734 1720.76 208.034V176.535C1720.76 174.836 1719.36 173.436 1717.66 173.436C1715.96 173.436 1714.56 174.836 1714.56 176.535V208.034C1714.56 209.734 1715.96 211.134 1717.66 211.134Z" fill="#EBE6E2"/>
<path d="M1752.96 211.134C1754.66 211.134 1756.06 209.734 1756.06 208.034V176.535C1756.06 174.836 1754.66 173.436 1752.96 173.436C1751.26 173.436 1749.86 174.836 1749.86 176.535V208.034C1749.86 209.734 1751.26 211.134 1752.96 211.134Z" fill="#EBE6E2"/>
<path d="M1748.76 386.924C1750.46 386.924 1751.86 385.524 1751.86 383.824V352.326C1751.86 350.626 1750.46 349.226 1748.76 349.226C1747.06 349.226 1745.66 350.626 1745.66 352.326V383.824C1745.66 385.524 1747.06 386.924 1748.76 386.924Z" fill="#EBE6E2"/>
<path d="M1784.06 386.924C1785.76 386.924 1787.16 385.524 1787.16 383.824V352.326C1787.16 350.626 1785.76 349.226 1784.06 349.226C1782.36 349.226 1780.96 350.626 1780.96 352.326V383.824C1780.96 385.524 1782.36 386.924 1784.06 386.924Z" fill="#EBE6E2"/>
<path d="M1331.88 410.473C1333.58 410.473 1334.98 409.073 1334.98 407.373V375.875C1334.98 374.175 1333.58 372.775 1331.88 372.775C1330.18 372.775 1328.78 374.175 1328.78 375.875V407.373C1328.83 409.073 1330.18 410.473 1331.88 410.473Z" fill="#EBE6E2"/>
<path d="M1367.18 410.473C1368.88 410.473 1370.28 409.073 1370.28 407.373V375.875C1370.28 374.175 1368.88 372.775 1367.18 372.775C1365.48 372.775 1364.08 374.175 1364.08 375.875V407.373C1364.13 409.073 1365.48 410.473 1367.18 410.473Z" fill="#EBE6E2"/>
<path d="M1678.81 295.079C1678.81 293.379 1677.41 291.98 1675.71 291.98H1644.21C1642.51 291.98 1641.11 293.379 1641.11 295.079C1641.11 296.779 1642.51 298.179 1644.21 298.179H1675.71C1677.46 298.179 1678.81 296.829 1678.81 295.079Z" fill="#EBE6E2"/>
<path d="M1678.81 259.781C1678.81 258.081 1677.41 256.681 1675.71 256.681H1644.21C1642.51 256.681 1641.11 258.081 1641.11 259.781C1641.11 261.481 1642.51 262.881 1644.21 262.881H1675.71C1677.46 262.881 1678.81 261.481 1678.81 259.781Z" fill="#EBE6E2"/>
<path d="M1498.02 211.134C1499.72 211.134 1501.12 209.734 1501.12 208.034V176.535C1501.12 174.836 1499.72 173.436 1498.02 173.436C1496.32 173.436 1494.92 174.836 1494.92 176.535V208.034C1494.92 209.734 1496.32 211.134 1498.02 211.134Z" fill="#EBE6E2"/>
<path d="M1454.87 75.0908C1454.87 73.3908 1453.47 71.9909 1451.77 71.9909H1420.28C1418.58 71.9909 1417.18 73.3908 1417.18 75.0908C1417.18 76.7907 1418.58 78.1906 1420.28 78.1906H1451.77C1453.52 78.1906 1454.87 76.7907 1454.87 75.0908Z" fill="#EBE6E2"/>
<path d="M1842.05 117.639C1842.05 115.939 1840.65 114.539 1838.95 114.539H1807.46C1805.76 114.539 1804.36 115.939 1804.36 117.639C1804.36 119.338 1805.76 120.738 1807.46 120.738H1838.95C1840.65 120.688 1842.05 119.338 1842.05 117.639Z" fill="#EBE6E2"/>
<path d="M1842.05 58.4914C1842.05 56.7915 1840.65 55.3915 1838.95 55.3915H1807.46C1805.76 55.3915 1804.36 56.7915 1804.36 58.4914C1804.36 60.1913 1805.76 61.5912 1807.46 61.5912H1838.95C1840.65 61.5912 1842.05 60.1913 1842.05 58.4914Z" fill="#EBE6E2"/>
<path d="M1454.87 248.882C1454.87 247.182 1453.47 245.782 1451.77 245.782H1420.28C1418.58 245.782 1417.18 247.182 1417.18 248.882C1417.18 250.582 1418.58 251.982 1420.28 251.982H1451.77C1453.52 251.932 1454.87 250.582 1454.87 248.882Z" fill="#EBE6E2"/>
<path d="M1454.87 323.228C1454.87 321.528 1453.47 320.128 1451.77 320.128H1420.28C1418.58 320.128 1417.18 321.528 1417.18 323.228C1417.18 324.928 1418.58 326.328 1420.28 326.328H1451.77C1453.52 326.328 1454.87 324.928 1454.87 323.228Z" fill="#EBE6E2"/>
<path d="M1141.94 207.184V437.972H1111.34V214.734C1111.49 214.084 1111.54 213.434 1111.54 212.734C1111.54 212.034 1111.49 211.384 1111.34 210.734C1110.39 205.984 1106.19 202.334 1101.14 202.334H960.05V171.736H1109.19C1110.24 171.936 1111.29 172.136 1112.29 172.436C1118.04 173.986 1123.29 176.736 1127.74 180.485C1135.54 187.035 1140.84 196.485 1141.94 207.184Z" fill="#EBE6E2"/>
<path d="M1375.58 -34.7035V-102H1345.08V-42.2531C1345.23 -41.6031 1345.28 -40.9532 1345.28 -40.2532C1345.28 -39.5532 1345.23 -38.9033 1345.08 -38.2533C1344.13 -33.5036 1339.98 -29.9038 1334.93 -29.9038H1183.24C1180.89 -29.7538 1178.54 -29.4038 1176.34 -28.8538C1176.14 -28.8038 1175.99 -28.7538 1175.79 -28.7038C1159.44 -24.454 1147.09 -10.2048 1145.84 7.14433V46.9422H1176.34V11.2941C1176.34 11.1441 1176.34 10.9941 1176.34 10.8441C1176.34 10.6941 1176.34 10.5441 1176.34 10.3941C1176.54 5.44441 1180.29 1.34463 1185.09 0.644661C1185.59 0.544662 1186.14 0.54467 1186.69 0.54467C1187.24 0.54467 1187.74 0.594666 1188.29 0.644661H1342.93C1343.98 0.444672 1344.98 0.244675 1346.03 -0.0553055C1351.78 -1.60522 1357.03 -4.35509 1361.43 -8.05489C1369.18 -14.6545 1374.48 -24.0541 1375.58 -34.7035Z" fill="#EBE6E2"/>
<path d="M1344.93 290.53H1421.83V260.031H1352.43C1351.78 260.181 1351.13 260.231 1350.43 260.231C1349.73 260.231 1349.08 260.181 1348.43 260.031C1343.68 259.081 1340.08 254.932 1340.08 249.882V82.8406C1339.93 80.4907 1339.58 78.1408 1339.03 75.9409C1338.98 75.7409 1338.93 75.5909 1338.88 75.3909C1334.63 59.0418 1320.38 46.6924 1303.03 45.4425H960.05V75.9409H1298.93C1299.08 75.9409 1299.23 75.9409 1299.38 75.9409C1299.53 75.9409 1299.68 75.9409 1299.83 75.9409C1304.78 76.1409 1308.88 79.8907 1309.58 84.6905C1309.68 85.1904 1309.68 85.7404 1309.68 86.2904C1309.68 86.8404 1309.63 87.3403 1309.58 87.8903V257.931C1309.78 258.981 1309.98 259.981 1310.28 261.031C1311.83 266.781 1314.58 272.031 1318.28 276.43C1324.83 284.18 1334.28 289.43 1344.93 290.53Z" fill="#EBE6E2"/>
<path d="M1119.24 175.685C1120.94 175.685 1122.34 177.085 1122.34 178.785V210.284C1122.34 211.983 1120.94 213.383 1119.24 213.383C1117.54 213.383 1116.14 211.983 1116.14 210.284V178.785C1116.19 177.085 1117.54 175.685 1119.24 175.685Z" fill="#EBE6E2"/>
<path d="M1095.99 41.4423C1097.69 41.4423 1099.09 42.8423 1099.09 44.5422V76.0405C1099.09 77.7404 1097.69 79.1404 1095.99 79.1404C1094.29 79.1404 1092.89 77.7404 1092.89 76.0405V44.5422C1092.94 42.7923 1094.29 41.4423 1095.99 41.4423Z" fill="#EBE6E2"/>
<path d="M1249.53 42.2424C1251.23 42.2424 1252.63 43.6424 1252.63 45.3423V76.8406C1252.63 78.5406 1251.23 79.9405 1249.53 79.9405C1247.83 79.9405 1246.44 78.5406 1246.44 76.8406V45.3423C1246.44 43.6424 1247.83 42.2424 1249.53 42.2424Z" fill="#EBE6E2"/>
<path d="M1284.83 42.2424C1286.53 42.2424 1287.93 43.6424 1287.93 45.3423V76.8406C1287.93 78.5406 1286.53 79.9405 1284.83 79.9405C1283.13 79.9405 1281.73 78.5406 1281.73 76.8406V45.3423C1281.73 43.6424 1283.13 42.2424 1284.83 42.2424Z" fill="#EBE6E2"/>
<path d="M1179.64 11.7939C1179.64 13.4938 1178.24 14.8938 1176.54 14.8938H1145.04C1143.34 14.8938 1141.94 13.4938 1141.94 11.7939C1141.94 10.094 1143.34 8.69409 1145.04 8.69409H1176.54C1178.24 8.74409 1179.64 10.094 1179.64 11.7939Z" fill="#EBE6E2"/>
<path d="M1231.74 4.84455C1230.04 4.84455 1228.64 3.44463 1228.64 1.74471V-29.7536C1228.64 -31.4536 1230.04 -32.8535 1231.74 -32.8535C1233.44 -32.8535 1234.84 -31.4536 1234.84 -29.7536V1.74471C1234.84 3.44463 1233.44 4.84455 1231.74 4.84455Z" fill="#EBE6E2"/>
<path d="M1305.18 4.84455C1303.48 4.84455 1302.08 3.44463 1302.08 1.74471V-29.7536C1302.08 -31.4536 1303.48 -32.8535 1305.18 -32.8535C1306.88 -32.8535 1308.28 -31.4536 1308.28 -29.7536V1.74471C1308.23 3.44463 1306.88 4.84455 1305.18 4.84455Z" fill="#EBE6E2"/>
<path d="M1342.83 127.038C1342.83 128.738 1341.43 130.138 1339.73 130.138H1308.23C1306.53 130.138 1305.13 128.738 1305.13 127.038C1305.13 125.338 1306.53 123.938 1308.23 123.938H1339.73C1341.48 123.938 1342.83 125.338 1342.83 127.038Z" fill="#EBE6E2"/>
<path d="M998.798 167.986C1000.5 167.986 1001.9 169.386 1001.9 171.086V202.584C1001.9 204.284 1000.5 205.684 998.798 205.684C997.098 205.684 995.698 204.284 995.698 202.584V171.086C995.698 169.386 997.098 167.986 998.798 167.986Z" fill="#EBE6E2"/>
<path d="M1342.83 195.935C1342.83 197.634 1341.43 199.034 1339.73 199.034H1308.23C1306.53 199.034 1305.13 197.634 1305.13 195.935C1305.13 194.235 1306.53 192.835 1308.23 192.835H1339.73C1341.48 192.885 1342.83 194.235 1342.83 195.935Z" fill="#EBE6E2"/>
<path d="M1145.99 328.327C1145.99 330.027 1144.59 331.427 1142.89 331.427H1111.39C1109.69 331.427 1108.29 330.027 1108.29 328.327C1108.29 326.628 1109.69 325.228 1111.39 325.228H1142.89C1144.64 325.228 1145.99 326.628 1145.99 328.327Z" fill="#EBE6E2"/>
<path d="M960.05 -45.503H994.198C996.548 -45.353 998.898 -45.003 1001.1 -44.4531C1001.3 -44.4031 1001.45 -44.3531 1001.65 -44.3031C1018 -40.0533 1030.35 -25.804 1031.6 -8.45494V46.9922H1001.1V-4.30516C1001.1 -4.45516 1001.1 -4.60515 1001.1 -4.75514C1001.1 -4.90513 1001.1 -5.05512 1001.1 -5.20511C1000.9 -10.1549 997.148 -14.2546 992.348 -14.9546C991.848 -15.0546 991.298 -15.0546 990.748 -15.0546C990.198 -15.0546 989.698 -15.0046 989.148 -14.9546H960V-45.503H960.05Z" fill="#EBE6E2"/>
<path d="M1047.05 167.986C1048.75 167.986 1050.15 169.386 1050.15 171.086V202.584C1050.15 204.284 1048.75 205.684 1047.05 205.684C1045.35 205.684 1043.95 204.284 1043.95 202.584V171.086C1043.95 169.386 1045.35 167.986 1047.05 167.986Z" fill="#EBE6E2"/>
<path d="M1145.99 286.48C1145.99 288.18 1144.59 289.58 1142.89 289.58H1111.39C1109.69 289.58 1108.29 288.18 1108.29 286.48C1108.29 284.78 1109.69 283.38 1111.39 283.38H1142.89C1144.64 283.38 1145.99 284.78 1145.99 286.48Z" fill="#EBE6E2"/>
<path d="M1035.15 38.3429C1035.15 40.0428 1033.75 41.4427 1032.05 41.4427H1000.55C998.848 41.4427 997.448 40.0428 997.448 38.3429C997.448 36.643 998.848 35.243 1000.55 35.243H1032.05C1033.75 35.243 1035.15 36.643 1035.15 38.3429Z" fill="#EBE6E2"/>
<path d="M1920 437.212H960.05V977.184H1920V437.212Z" fill="#F0EEEC"/>
<path d="M1762.46 930.436C1762.46 932.136 1761.06 933.536 1759.36 933.536H1727.86C1726.16 933.536 1724.76 932.136 1724.76 930.436C1724.76 928.736 1726.16 927.336 1727.86 927.336H1759.36C1761.06 927.386 1762.46 928.736 1762.46 930.436Z" fill="#EBE6E2"/>
<path d="M1420.78 862.09V544.106H1451.37V854.54C1451.22 855.19 1451.17 855.84 1451.17 856.54C1451.17 857.24 1451.22 857.89 1451.37 858.54C1452.32 863.29 1456.52 866.94 1461.57 866.94H1721.26C1723.61 867.09 1725.96 867.44 1728.21 867.99C1728.41 868.04 1728.56 868.09 1728.76 868.14C1745.16 872.389 1757.51 886.689 1758.81 904.138V977.184H1728.21V908.237C1728.21 908.087 1728.21 907.937 1728.21 907.787C1728.21 907.637 1728.21 907.487 1728.21 907.337C1728.01 902.338 1724.26 898.288 1719.41 897.538C1718.91 897.438 1718.36 897.438 1717.81 897.438C1717.26 897.438 1716.76 897.488 1716.21 897.538H1453.47C1452.42 897.338 1451.37 897.138 1450.37 896.838C1444.62 895.288 1439.38 892.538 1434.93 888.788C1427.18 882.239 1421.88 872.789 1420.78 862.09Z" fill="#EBE6E2"/>
<path d="M1247.68 463.26V437.212H1278.18V455.711C1278.03 456.361 1277.98 457.011 1277.98 457.711C1277.98 458.411 1278.03 459.061 1278.18 459.711C1279.13 464.46 1283.28 468.06 1288.33 468.06H1413.93C1416.28 468.21 1418.63 468.56 1420.83 469.11C1421.03 469.16 1421.18 469.21 1421.38 469.26C1437.73 473.51 1450.07 487.759 1451.32 505.108V560.555H1420.83V509.258C1420.83 509.108 1420.83 508.958 1420.83 508.808C1420.83 508.658 1420.83 508.508 1420.83 508.358C1420.63 503.408 1416.88 499.309 1412.08 498.609C1411.58 498.509 1411.03 498.509 1410.48 498.509C1409.93 498.509 1409.43 498.559 1408.88 498.609H1280.28C1279.23 498.409 1278.23 498.209 1277.18 497.909C1271.43 496.359 1266.18 493.609 1261.78 489.909C1254.08 483.359 1248.78 473.91 1247.68 463.26Z" fill="#EBE6E2"/>
<path d="M1874.8 487.159V437.212H1844.3V479.61C1844.45 480.26 1844.5 480.91 1844.5 481.609C1844.5 482.309 1844.45 482.959 1844.3 483.609C1843.35 488.359 1839.2 491.959 1834.15 491.959H1682.51C1680.16 492.109 1677.81 492.459 1675.61 493.009C1675.41 493.059 1675.26 493.109 1675.06 493.159C1658.71 497.409 1646.36 511.658 1645.11 529.007V678.149H1675.61V533.157C1675.61 533.007 1675.61 532.857 1675.61 532.707C1675.61 532.557 1675.61 532.407 1675.61 532.257C1675.81 527.307 1679.56 523.207 1684.36 522.507C1684.86 522.407 1685.41 522.407 1685.96 522.407C1686.51 522.407 1687.01 522.457 1687.56 522.507H1842.1C1843.15 522.307 1844.15 522.107 1845.2 521.807C1850.95 520.257 1856.2 517.508 1860.6 513.808C1868.4 507.208 1873.7 497.809 1874.8 487.159Z" fill="#EBE6E2"/>
<path d="M1843.1 912.337H1920V881.839H1850.6C1849.95 881.989 1849.3 882.039 1848.6 882.039C1847.9 882.039 1847.25 881.989 1846.6 881.839C1841.85 880.889 1838.25 876.739 1838.25 871.689V704.648C1838.1 702.298 1837.75 699.948 1837.2 697.748C1837.15 697.548 1837.1 697.398 1837.05 697.198C1832.8 680.849 1818.56 668.5 1801.21 667.25H1446.27V697.748H1797.11C1797.26 697.748 1797.41 697.748 1797.56 697.748C1797.71 697.748 1797.86 697.748 1798.01 697.748C1802.96 697.948 1807.06 701.698 1807.76 706.498C1807.86 706.998 1807.86 707.548 1807.86 708.098C1807.86 708.648 1807.81 709.148 1807.76 709.698V879.639C1807.96 880.689 1808.16 881.689 1808.46 882.739C1810.01 888.489 1812.76 893.738 1816.46 898.138C1823.01 905.938 1832.4 911.237 1843.1 912.337Z" fill="#EBE6E2"/>
<path d="M1673.46 863.39C1675.16 863.39 1676.56 864.79 1676.56 866.49V897.988C1676.56 899.688 1675.16 901.088 1673.46 901.088C1671.76 901.088 1670.36 899.688 1670.36 897.988V866.49C1670.41 864.74 1671.76 863.39 1673.46 863.39Z" fill="#EBE6E2"/>
<path d="M1518.82 863.39C1520.52 863.39 1521.92 864.79 1521.92 866.49V897.988C1521.92 899.688 1520.52 901.088 1518.82 901.088C1517.12 901.088 1515.72 899.688 1515.72 897.988V866.49C1515.77 864.74 1517.12 863.39 1518.82 863.39Z" fill="#EBE6E2"/>
<path d="M1618.47 664.05C1620.17 664.05 1621.57 665.45 1621.57 667.15V698.648C1621.57 700.348 1620.17 701.748 1618.47 701.748C1616.77 701.748 1615.37 700.348 1615.37 698.648V667.15C1615.42 665.45 1616.77 664.05 1618.47 664.05Z" fill="#EBE6E2"/>
<path d="M1717.66 664.05C1719.36 664.05 1720.76 665.45 1720.76 667.15V698.648C1720.76 700.348 1719.36 701.748 1717.66 701.748C1715.96 701.748 1714.56 700.348 1714.56 698.648V667.15C1714.56 665.45 1715.96 664.05 1717.66 664.05Z" fill="#EBE6E2"/>
<path d="M1752.96 664.05C1754.66 664.05 1756.06 665.45 1756.06 667.15V698.648C1756.06 700.348 1754.66 701.748 1752.96 701.748C1751.26 701.748 1749.86 700.348 1749.86 698.648V667.15C1749.86 665.45 1751.26 664.05 1752.96 664.05Z" fill="#EBE6E2"/>
<path d="M1748.76 488.259C1750.46 488.259 1751.86 489.659 1751.86 491.359V522.858C1751.86 524.557 1750.46 525.957 1748.76 525.957C1747.06 525.957 1745.66 524.557 1745.66 522.858V491.359C1745.66 489.659 1747.06 488.259 1748.76 488.259Z" fill="#EBE6E2"/>
<path d="M1784.06 488.259C1785.76 488.259 1787.16 489.659 1787.16 491.359V522.858C1787.16 524.557 1785.76 525.957 1784.06 525.957C1782.36 525.957 1780.96 524.557 1780.96 522.858V491.359C1780.96 489.659 1782.36 488.259 1784.06 488.259Z" fill="#EBE6E2"/>
<path d="M1331.88 464.711C1333.58 464.711 1334.98 466.111 1334.98 467.81V499.309C1334.98 501.009 1333.58 502.409 1331.88 502.409C1330.18 502.409 1328.78 501.009 1328.78 499.309V467.81C1328.83 466.111 1330.18 464.711 1331.88 464.711Z" fill="#EBE6E2"/>
<path d="M1367.18 464.711C1368.88 464.711 1370.28 466.111 1370.28 467.81V499.309C1370.28 501.009 1368.88 502.409 1367.18 502.409C1365.48 502.409 1364.08 501.009 1364.08 499.309V467.81C1364.13 466.111 1365.48 464.711 1367.18 464.711Z" fill="#EBE6E2"/>
<path d="M1678.81 580.105C1678.81 581.804 1677.41 583.204 1675.71 583.204H1644.21C1642.51 583.204 1641.11 581.804 1641.11 580.105C1641.11 578.405 1642.51 577.005 1644.21 577.005H1675.71C1677.46 577.005 1678.81 578.355 1678.81 580.105Z" fill="#EBE6E2"/>
<path d="M1678.81 615.403C1678.81 617.103 1677.41 618.503 1675.71 618.503H1644.21C1642.51 618.503 1641.11 617.103 1641.11 615.403C1641.11 613.703 1642.51 612.303 1644.21 612.303H1675.71C1677.46 612.303 1678.81 613.703 1678.81 615.403Z" fill="#EBE6E2"/>
<path d="M1498.02 664.05C1499.72 664.05 1501.12 665.45 1501.12 667.15V698.648C1501.12 700.348 1499.72 701.748 1498.02 701.748C1496.32 701.748 1494.92 700.348 1494.92 698.648V667.15C1494.92 665.45 1496.32 664.05 1498.02 664.05Z" fill="#EBE6E2"/>
<path d="M1454.87 800.093C1454.87 801.793 1453.47 803.193 1451.77 803.193H1420.28C1418.58 803.193 1417.18 801.793 1417.18 800.093C1417.18 798.393 1418.58 796.993 1420.28 796.993H1451.77C1453.52 796.993 1454.87 798.393 1454.87 800.093Z" fill="#EBE6E2"/>
<path d="M1842.05 757.545C1842.05 759.245 1840.65 760.645 1838.95 760.645H1807.46C1805.76 760.645 1804.36 759.245 1804.36 757.545C1804.36 755.845 1805.76 754.445 1807.46 754.445H1838.95C1840.65 754.495 1842.05 755.845 1842.05 757.545Z" fill="#EBE6E2"/>
<path d="M1842.05 816.693C1842.05 818.392 1840.65 819.792 1838.95 819.792H1807.46C1805.76 819.792 1804.36 818.392 1804.36 816.693C1804.36 814.993 1805.76 813.593 1807.46 813.593H1838.95C1840.65 813.593 1842.05 814.993 1842.05 816.693Z" fill="#EBE6E2"/>
<path d="M1454.87 626.302C1454.87 628.002 1453.47 629.402 1451.77 629.402H1420.28C1418.58 629.402 1417.18 628.002 1417.18 626.302C1417.18 624.602 1418.58 623.202 1420.28 623.202H1451.77C1453.52 623.252 1454.87 624.602 1454.87 626.302Z" fill="#EBE6E2"/>
<path d="M1454.87 551.956C1454.87 553.656 1453.47 555.056 1451.77 555.056H1420.28C1418.58 555.056 1417.18 553.656 1417.18 551.956C1417.18 550.256 1418.58 548.856 1420.28 548.856H1451.77C1453.52 548.856 1454.87 550.256 1454.87 551.956Z" fill="#EBE6E2"/>
<path d="M1141.94 668V437.212H1111.34V660.45C1111.49 661.1 1111.54 661.75 1111.54 662.45C1111.54 663.15 1111.49 663.8 1111.34 664.45C1110.39 669.2 1106.19 672.85 1101.14 672.85H960.05V703.448H1109.19C1110.24 703.248 1111.29 703.048 1112.29 702.748C1118.04 701.198 1123.29 698.448 1127.74 694.699C1135.54 688.149 1140.84 678.699 1141.94 668Z" fill="#EBE6E2"/>
<path d="M1375.58 909.887V977.184H1345.08V917.437C1345.23 916.787 1345.28 916.137 1345.28 915.437C1345.28 914.737 1345.23 914.087 1345.08 913.437C1344.13 908.687 1339.98 905.088 1334.93 905.088H1183.24C1180.89 904.938 1178.54 904.588 1176.34 904.038C1176.14 903.988 1175.99 903.938 1175.79 903.888C1159.44 899.638 1147.09 885.389 1145.84 868.04V828.242H1176.34V863.89C1176.34 864.04 1176.34 864.19 1176.34 864.34C1176.34 864.49 1176.34 864.64 1176.34 864.79C1176.54 869.739 1180.29 873.839 1185.09 874.539C1185.59 874.639 1186.14 874.639 1186.69 874.639C1187.24 874.639 1187.74 874.589 1188.29 874.539H1342.93C1343.98 874.739 1344.98 874.939 1346.03 875.239C1351.78 876.789 1357.03 879.539 1361.43 883.239C1369.18 889.838 1374.48 899.238 1375.58 909.887Z" fill="#EBE6E2"/>
<path d="M1344.93 584.654H1421.83V615.153H1352.43C1351.78 615.003 1351.13 614.953 1350.43 614.953C1349.73 614.953 1349.08 615.003 1348.43 615.153C1343.68 616.103 1340.08 620.252 1340.08 625.302V792.343C1339.93 794.693 1339.58 797.043 1339.03 799.243C1338.98 799.443 1338.93 799.593 1338.88 799.793C1334.63 816.142 1320.38 828.492 1303.03 829.741H960.05V799.243H1298.93C1299.08 799.243 1299.23 799.243 1299.38 799.243C1299.53 799.243 1299.68 799.243 1299.83 799.243C1304.78 799.043 1308.88 795.293 1309.58 790.493C1309.68 789.994 1309.68 789.444 1309.68 788.894C1309.68 788.344 1309.63 787.844 1309.58 787.294V617.253C1309.78 616.203 1309.98 615.203 1310.28 614.153C1311.83 608.403 1314.58 603.153 1318.28 598.753C1324.83 591.004 1334.28 585.754 1344.93 584.654Z" fill="#EBE6E2"/>
<path d="M1119.24 699.499C1120.94 699.499 1122.34 698.099 1122.34 696.399V664.9C1122.34 663.2 1120.94 661.801 1119.24 661.801C1117.54 661.801 1116.14 663.2 1116.14 664.9V696.399C1116.19 698.099 1117.54 699.499 1119.24 699.499Z" fill="#EBE6E2"/>
<path d="M1095.99 833.741C1097.69 833.741 1099.09 832.341 1099.09 830.641V799.143C1099.09 797.443 1097.69 796.043 1095.99 796.043C1094.29 796.043 1092.89 797.443 1092.89 799.143V830.641C1092.94 832.391 1094.29 833.741 1095.99 833.741Z" fill="#EBE6E2"/>
<path d="M1249.53 832.942C1251.23 832.942 1252.63 831.542 1252.63 829.842V798.343C1252.63 796.643 1251.23 795.243 1249.53 795.243C1247.83 795.243 1246.44 796.643 1246.44 798.343V829.842C1246.44 831.542 1247.83 832.942 1249.53 832.942Z" fill="#EBE6E2"/>
<path d="M1284.83 832.942C1286.53 832.942 1287.93 831.542 1287.93 829.842V798.343C1287.93 796.643 1286.53 795.243 1284.83 795.243C1283.13 795.243 1281.73 796.643 1281.73 798.343V829.842C1281.73 831.542 1283.13 832.942 1284.83 832.942Z" fill="#EBE6E2"/>
<path d="M1179.64 863.39C1179.64 861.69 1178.24 860.29 1176.54 860.29H1145.04C1143.34 860.29 1141.94 861.69 1141.94 863.39C1141.94 865.09 1143.34 866.49 1145.04 866.49H1176.54C1178.24 866.44 1179.64 865.09 1179.64 863.39Z" fill="#EBE6E2"/>
<path d="M1379.48 935.136C1379.48 933.436 1378.08 932.036 1376.38 932.036H1344.88C1343.18 932.036 1341.78 933.436 1341.78 935.136C1341.78 936.836 1343.18 938.236 1344.88 938.236H1376.38C1378.13 938.236 1379.48 936.836 1379.48 935.136Z" fill="#EBE6E2"/>
<path d="M1231.74 870.339C1230.04 870.339 1228.64 871.739 1228.64 873.439V904.938C1228.64 906.637 1230.04 908.037 1231.74 908.037C1233.44 908.037 1234.84 906.637 1234.84 904.938V873.439C1234.84 871.739 1233.44 870.339 1231.74 870.339Z" fill="#EBE6E2"/>
<path d="M1305.18 870.339C1303.48 870.339 1302.08 871.739 1302.08 873.439V904.938C1302.08 906.637 1303.48 908.037 1305.18 908.037C1306.88 908.037 1308.28 906.637 1308.28 904.938V873.439C1308.23 871.739 1306.88 870.339 1305.18 870.339Z" fill="#EBE6E2"/>
<path d="M1342.83 748.146C1342.83 746.446 1341.43 745.046 1339.73 745.046H1308.23C1306.53 745.046 1305.13 746.446 1305.13 748.146C1305.13 749.846 1306.53 751.246 1308.23 751.246H1339.73C1341.48 751.246 1342.83 749.846 1342.83 748.146Z" fill="#EBE6E2"/>
<path d="M998.798 707.198C1000.5 707.198 1001.9 705.798 1001.9 704.098V672.6C1001.9 670.9 1000.5 669.5 998.798 669.5C997.098 669.5 995.698 670.9 995.698 672.6V704.098C995.698 705.798 997.098 707.198 998.798 707.198Z" fill="#EBE6E2"/>
<path d="M1342.83 679.249C1342.83 677.549 1341.43 676.15 1339.73 676.15H1308.23C1306.53 676.15 1305.13 677.549 1305.13 679.249C1305.13 680.949 1306.53 682.349 1308.23 682.349H1339.73C1341.48 682.299 1342.83 680.949 1342.83 679.249Z" fill="#EBE6E2"/>
<path d="M1145.99 546.856C1145.99 545.157 1144.59 543.757 1142.89 543.757H1111.39C1109.69 543.757 1108.29 545.157 1108.29 546.856C1108.29 548.556 1109.69 549.956 1111.39 549.956H1142.89C1144.64 549.956 1145.99 548.556 1145.99 546.856Z" fill="#EBE6E2"/>
<path d="M960.05 920.687H994.198C996.548 920.537 998.898 920.187 1001.1 919.637C1001.3 919.587 1001.45 919.537 1001.65 919.487C1018 915.237 1030.35 900.988 1031.6 883.639V828.192H1001.1V879.489C1001.1 879.639 1001.1 879.789 1001.1 879.939C1001.1 880.089 1001.1 880.239 1001.1 880.389C1000.9 885.339 997.148 889.439 992.348 890.138C991.848 890.238 991.298 890.238 990.748 890.238C990.198 890.238 989.698 890.188 989.148 890.138H960V920.687H960.05Z" fill="#EBE6E2"/>
<path d="M1047.05 707.198C1048.75 707.198 1050.15 705.798 1050.15 704.098V672.6C1050.15 670.9 1048.75 669.5 1047.05 669.5C1045.35 669.5 1043.95 670.9 1043.95 672.6V704.098C1043.95 705.798 1045.35 707.198 1047.05 707.198Z" fill="#EBE6E2"/>
<path d="M1145.99 588.704C1145.99 587.004 1144.59 585.604 1142.89 585.604H1111.39C1109.69 585.604 1108.29 587.004 1108.29 588.704C1108.29 590.404 1109.69 591.804 1111.39 591.804H1142.89C1144.64 591.804 1145.99 590.404 1145.99 588.704Z" fill="#EBE6E2"/>
<path d="M1035.15 836.841C1035.15 835.141 1033.75 833.741 1032.05 833.741H1000.55C998.848 833.741 997.448 835.141 997.448 836.841C997.448 838.541 998.848 839.941 1000.55 839.941H1032.05C1033.75 839.941 1035.15 838.541 1035.15 836.841Z" fill="#EBE6E2"/>
</g>
</svg>
