<svg width="1920" height="976" viewBox="0 0 1920 976" fill="none" xmlns="http://www.w3.org/2000/svg">
<mask id="mask0_109_694" style="mask-type:alpha" maskUnits="userSpaceOnUse" x="0" y="0" width="1920" height="976">
<rect width="1920" height="976" fill="#D9D9D9"/>
</mask>
<g mask="url(#mask0_109_694)">
<path d="M0 488.972H959.95V-51H0V488.972Z" fill="#F0EEEC"/>
<path d="M499.224 64.094V382.077H468.626V71.6436C468.776 70.9937 468.826 70.3437 468.826 69.6437C468.826 68.9438 468.776 68.2938 468.626 67.6438C467.676 62.8941 463.476 59.2443 458.426 59.2443H198.74C196.39 59.0943 194.04 58.7443 191.79 58.1943C191.59 58.1443 191.44 58.0943 191.24 58.0443C174.841 53.7946 162.492 39.4953 161.192 22.0462V-51H191.79V17.9464C191.79 18.0964 191.79 18.2464 191.79 18.3964C191.79 18.5464 191.79 18.6964 191.79 18.8464C191.99 23.8461 195.74 27.8959 200.59 28.6459C201.09 28.7459 201.639 28.7459 202.189 28.7459C202.739 28.7459 203.239 28.6959 203.789 28.6459H466.526C467.576 28.8458 468.626 29.0458 469.626 29.3458C475.375 30.8957 480.625 33.6456 485.075 37.3954C492.824 43.9451 498.124 53.3946 499.224 64.094Z" fill="#EBE6E2"/>
<path d="M672.315 462.923V488.972H641.817V470.473C641.967 469.823 642.017 469.173 642.017 468.473C642.017 467.773 641.967 467.123 641.817 466.473C640.867 461.723 636.717 458.124 631.667 458.124H506.074C503.724 457.974 501.374 457.624 499.174 457.074C498.974 457.024 498.824 456.974 498.624 456.924C482.275 452.674 469.926 438.425 468.676 421.076V365.628H499.174V416.926C499.174 417.076 499.174 417.226 499.174 417.376C499.174 417.526 499.174 417.676 499.174 417.826C499.374 422.775 503.124 426.875 507.924 427.575C508.424 427.675 508.974 427.675 509.523 427.675C510.073 427.675 510.573 427.625 511.123 427.575H639.717C640.767 427.775 641.767 427.975 642.817 428.275C648.566 429.825 653.816 432.575 658.216 436.275C665.915 442.824 671.215 452.274 672.315 462.923Z" fill="#EBE6E2"/>
<path d="M45.1977 439.025V488.972H75.6961V446.574C75.5461 445.924 75.4961 445.274 75.4961 444.574C75.4961 443.875 75.5461 443.225 75.6961 442.575C76.6461 437.825 80.7958 434.225 85.8456 434.225H237.488C239.838 434.075 242.187 433.725 244.387 433.175C244.587 433.125 244.737 433.075 244.937 433.025C261.286 428.775 273.636 414.526 274.886 397.177V248.035H244.387V393.027C244.387 393.177 244.387 393.327 244.387 393.477C244.387 393.627 244.387 393.777 244.387 393.927C244.187 398.877 240.438 402.977 235.638 403.677C235.138 403.777 234.588 403.777 234.038 403.777C233.488 403.777 232.988 403.727 232.438 403.677H77.896C76.846 403.877 75.8461 404.077 74.7962 404.377C69.0465 405.926 63.7967 408.676 59.397 412.376C51.5974 418.976 46.2976 428.375 45.1977 439.025Z" fill="#EBE6E2"/>
<path d="M76.896 13.8467H0V44.3451H69.3964C70.0464 44.1951 70.6963 44.1451 71.3963 44.1451C72.0963 44.1451 72.7462 44.1951 73.3962 44.3451C78.1459 45.295 81.7458 49.4448 81.7458 54.4946V221.536C81.8957 223.886 82.2457 226.236 82.7957 228.436C82.8457 228.636 82.8957 228.786 82.9457 228.985C87.1955 245.335 101.445 257.684 118.794 258.934H473.725V228.436H122.894C122.744 228.436 122.594 228.436 122.444 228.436C122.294 228.436 122.144 228.436 121.994 228.436C117.044 228.236 112.944 224.486 112.244 219.686C112.144 219.186 112.144 218.636 112.144 218.086C112.144 217.536 112.194 217.036 112.244 216.486V46.545C112.044 45.495 111.844 44.4951 111.544 43.4451C109.994 37.6954 107.244 32.4457 103.545 28.0459C96.995 20.2464 87.5955 14.9466 76.896 13.8467Z" fill="#EBE6E2"/>
<path d="M246.537 62.7938C244.837 62.7938 243.437 61.3938 243.437 59.6939V28.1955C243.437 26.4956 244.837 25.0957 246.537 25.0957C248.237 25.0957 249.637 26.4956 249.637 28.1955V59.6939C249.587 61.4438 248.237 62.7938 246.537 62.7938Z" fill="#EBE6E2"/>
<path d="M401.179 62.7938C399.479 62.7938 398.079 61.3938 398.079 59.6939V28.1955C398.079 26.4956 399.479 25.0957 401.179 25.0957C402.879 25.0957 404.279 26.4956 404.279 28.1955V59.6939C404.229 61.4438 402.879 62.7938 401.179 62.7938Z" fill="#EBE6E2"/>
<path d="M301.534 262.134C299.834 262.134 298.435 260.734 298.435 259.034V227.535C298.435 225.835 299.834 224.436 301.534 224.436C303.234 224.436 304.634 225.835 304.634 227.535V259.034C304.584 260.734 303.234 262.134 301.534 262.134Z" fill="#EBE6E2"/>
<path d="M202.339 262.134C200.64 262.134 199.24 260.734 199.24 259.034V227.535C199.24 225.835 200.64 224.436 202.339 224.436C204.039 224.436 205.439 225.835 205.439 227.535V259.034C205.439 260.734 204.039 262.134 202.339 262.134Z" fill="#EBE6E2"/>
<path d="M167.041 262.134C165.341 262.134 163.942 260.734 163.942 259.034V227.535C163.942 225.835 165.341 224.436 167.041 224.436C168.741 224.436 170.141 225.835 170.141 227.535V259.034C170.141 260.734 168.741 262.134 167.041 262.134Z" fill="#EBE6E2"/>
<path d="M171.241 437.924C169.541 437.924 168.141 436.524 168.141 434.825V403.326C168.141 401.626 169.541 400.226 171.241 400.226C172.941 400.226 174.341 401.626 174.341 403.326V434.825C174.341 436.524 172.941 437.924 171.241 437.924Z" fill="#EBE6E2"/>
<path d="M135.943 437.924C134.243 437.924 132.843 436.524 132.843 434.825V403.326C132.843 401.626 134.243 400.226 135.943 400.226C137.643 400.226 139.043 401.626 139.043 403.326V434.825C139.043 436.524 137.643 437.924 135.943 437.924Z" fill="#EBE6E2"/>
<path d="M588.119 461.473C586.42 461.473 585.02 460.073 585.02 458.373V426.875C585.02 425.175 586.42 423.775 588.119 423.775C589.819 423.775 591.219 425.175 591.219 426.875V458.373C591.169 460.073 589.819 461.473 588.119 461.473Z" fill="#EBE6E2"/>
<path d="M552.821 461.473C551.121 461.473 549.721 460.073 549.721 458.373V426.875C549.721 425.175 551.121 423.775 552.821 423.775C554.521 423.775 555.921 425.175 555.921 426.875V458.373C555.871 460.073 554.521 461.473 552.821 461.473Z" fill="#EBE6E2"/>
<path d="M241.188 346.079C241.188 344.379 242.587 342.979 244.287 342.979H275.786C277.486 342.979 278.886 344.379 278.886 346.079C278.886 347.779 277.486 349.179 275.786 349.179H244.287C242.537 349.179 241.188 347.829 241.188 346.079Z" fill="#EBE6E2"/>
<path d="M241.188 310.781C241.188 309.081 242.587 307.681 244.287 307.681H275.786C277.486 307.681 278.886 309.081 278.886 310.781C278.886 312.481 277.486 313.881 275.786 313.881H244.287C242.537 313.881 241.188 312.481 241.188 310.781Z" fill="#EBE6E2"/>
<path d="M421.978 262.134C420.278 262.134 418.878 260.734 418.878 259.034V227.535C418.878 225.835 420.278 224.436 421.978 224.436C423.678 224.436 425.078 225.835 425.078 227.535V259.034C425.078 260.734 423.678 262.134 421.978 262.134Z" fill="#EBE6E2"/>
<path d="M465.126 126.091C465.126 124.391 466.526 122.991 468.226 122.991H499.724C501.424 122.991 502.824 124.391 502.824 126.091C502.824 127.791 501.424 129.191 499.724 129.191H468.226C466.476 129.191 465.126 127.791 465.126 126.091Z" fill="#EBE6E2"/>
<path d="M77.9459 168.638C77.9459 166.938 79.3459 165.539 81.0458 165.539H112.544C114.244 165.539 115.644 166.938 115.644 168.638C115.644 170.338 114.244 171.738 112.544 171.738H81.0458C79.3459 171.688 77.9459 170.338 77.9459 168.638Z" fill="#EBE6E2"/>
<path d="M77.9459 109.491C77.9459 107.792 79.3459 106.392 81.0458 106.392H112.544C114.244 106.392 115.644 107.792 115.644 109.491C115.644 111.191 114.244 112.591 112.544 112.591H81.0458C79.3459 112.591 77.9459 111.191 77.9459 109.491Z" fill="#EBE6E2"/>
<path d="M465.126 299.882C465.126 298.182 466.526 296.782 468.226 296.782H499.724C501.424 296.782 502.824 298.182 502.824 299.882C502.824 301.582 501.424 302.982 499.724 302.982H468.226C466.476 302.932 465.126 301.582 465.126 299.882Z" fill="#EBE6E2"/>
<path d="M465.126 374.228C465.126 372.528 466.526 371.128 468.226 371.128H499.724C501.424 371.128 502.824 372.528 502.824 374.228C502.824 375.928 501.424 377.328 499.724 377.328H468.226C466.476 377.328 465.126 375.928 465.126 374.228Z" fill="#EBE6E2"/>
<path d="M778.06 258.184V488.972H808.658V265.734C808.508 265.084 808.458 264.434 808.458 263.734C808.458 263.034 808.508 262.384 808.658 261.734C809.608 256.984 813.808 253.334 818.857 253.334H959.95V222.736H810.808C809.758 222.936 808.708 223.136 807.708 223.436C801.958 224.986 796.709 227.736 792.259 231.485C784.459 238.035 779.159 247.485 778.06 258.184Z" fill="#EBE6E2"/>
<path d="M544.422 16.2965V-51H574.92V8.74689C574.77 9.39686 574.72 10.0468 574.72 10.7468C574.72 11.4468 574.77 12.0967 574.92 12.7467C575.87 17.4964 580.02 21.0962 585.069 21.0962H736.762C739.111 21.2462 741.461 21.5962 743.661 22.1462C743.861 22.1962 744.011 22.2462 744.211 22.2962C760.56 26.546 772.91 40.7952 774.16 58.1443V97.9422H743.661V62.2941C743.661 62.1441 743.661 61.9941 743.661 61.8441C743.661 61.6941 743.661 61.5441 743.661 61.3941C743.461 56.4444 739.711 52.3446 734.912 51.6447C734.412 51.5447 733.862 51.5447 733.312 51.5447C732.762 51.5447 732.262 51.5947 731.712 51.6447H577.07C576.02 51.4447 575.02 51.2447 573.97 50.9447C568.22 49.3948 562.971 46.6449 558.571 42.9451C550.821 36.3455 545.522 26.9459 544.422 16.2965Z" fill="#EBE6E2"/>
<path d="M575.07 341.53H498.174V311.031H567.57C568.22 311.181 568.87 311.231 569.57 311.231C570.27 311.231 570.92 311.181 571.57 311.031C576.32 310.081 579.92 305.931 579.92 300.882V133.84C580.07 131.491 580.42 129.141 580.97 126.941C581.02 126.741 581.07 126.591 581.12 126.391C585.37 110.042 599.619 97.6923 616.968 96.4424H959.95V126.941H621.068C620.918 126.941 620.768 126.941 620.618 126.941C620.468 126.941 620.318 126.941 620.168 126.941C615.218 127.141 611.118 130.891 610.418 135.69C610.318 136.19 610.318 136.74 610.318 137.29C610.318 137.84 610.368 138.34 610.418 138.89V308.931C610.218 309.981 610.018 310.981 609.718 312.031C608.168 317.781 605.418 323.031 601.719 327.43C595.169 335.18 585.719 340.43 575.07 341.53Z" fill="#EBE6E2"/>
<path d="M800.758 226.685C799.058 226.685 797.658 228.085 797.658 229.785V261.283C797.658 262.983 799.058 264.383 800.758 264.383C802.458 264.383 803.858 262.983 803.858 261.283V229.785C803.808 228.085 802.458 226.685 800.758 226.685Z" fill="#EBE6E2"/>
<path d="M824.007 92.4424C822.307 92.4424 820.907 93.8423 820.907 95.5422V127.041C820.907 128.741 822.307 130.14 824.007 130.14C825.707 130.14 827.107 128.741 827.107 127.041V95.5422C827.057 93.7923 825.707 92.4424 824.007 92.4424Z" fill="#EBE6E2"/>
<path d="M670.465 93.2424C668.765 93.2424 667.365 94.6424 667.365 96.3423V127.841C667.365 129.541 668.765 130.94 670.465 130.94C672.165 130.94 673.565 129.541 673.565 127.841V96.3423C673.565 94.6424 672.165 93.2424 670.465 93.2424Z" fill="#EBE6E2"/>
<path d="M635.167 93.2424C633.467 93.2424 632.067 94.6424 632.067 96.3423V127.841C632.067 129.541 633.467 130.94 635.167 130.94C636.867 130.94 638.267 129.541 638.267 127.841V96.3423C638.267 94.6424 636.867 93.2424 635.167 93.2424Z" fill="#EBE6E2"/>
<path d="M740.362 62.7939C740.362 64.4938 741.761 65.8938 743.461 65.8938H774.96C776.66 65.8938 778.06 64.4938 778.06 62.7939C778.06 61.094 776.66 59.6941 774.96 59.6941H743.461C741.761 59.7441 740.362 61.094 740.362 62.7939Z" fill="#EBE6E2"/>
<path d="M688.264 55.8445C689.964 55.8445 691.364 54.4446 691.364 52.7447V21.2463C691.364 19.5464 689.964 18.1465 688.264 18.1465C686.564 18.1465 685.164 19.5464 685.164 21.2463V52.7447C685.164 54.4446 686.564 55.8445 688.264 55.8445Z" fill="#EBE6E2"/>
<path d="M614.818 55.8445C616.518 55.8445 617.918 54.4446 617.918 52.7447V21.2463C617.918 19.5464 616.518 18.1465 614.818 18.1465C613.118 18.1465 611.718 19.5464 611.718 21.2463V52.7447C611.768 54.4446 613.118 55.8445 614.818 55.8445Z" fill="#EBE6E2"/>
<path d="M577.17 178.038C577.17 179.738 578.57 181.138 580.27 181.138H611.768C613.468 181.138 614.868 179.738 614.868 178.038C614.868 176.338 613.468 174.938 611.768 174.938H580.27C578.52 174.938 577.17 176.338 577.17 178.038Z" fill="#EBE6E2"/>
<path d="M921.202 218.986C919.502 218.986 918.102 220.386 918.102 222.086V253.584C918.102 255.284 919.502 256.684 921.202 256.684C922.902 256.684 924.302 255.284 924.302 253.584V222.086C924.302 220.386 922.902 218.986 921.202 218.986Z" fill="#EBE6E2"/>
<path d="M577.17 246.935C577.17 248.634 578.57 250.034 580.27 250.034H611.768C613.468 250.034 614.868 248.634 614.868 246.935C614.868 245.235 613.468 243.835 611.768 243.835H580.27C578.52 243.885 577.17 245.235 577.17 246.935Z" fill="#EBE6E2"/>
<path d="M774.01 379.327C774.01 381.027 775.41 382.427 777.11 382.427H808.608C810.308 382.427 811.708 381.027 811.708 379.327C811.708 377.627 810.308 376.228 808.608 376.228H777.11C775.36 376.228 774.01 377.627 774.01 379.327Z" fill="#EBE6E2"/>
<path d="M959.95 5.49707H925.802C923.452 5.64706 921.102 5.99704 918.902 6.54701C918.702 6.59701 918.552 6.64701 918.352 6.69701C902.003 10.9468 889.654 25.196 888.404 42.5451V97.9923H918.902V46.6949C918.902 46.5449 918.902 46.3949 918.902 46.245C918.902 46.095 918.902 45.945 918.902 45.795C919.102 40.8452 922.852 36.7454 927.652 36.0455C928.152 35.9455 928.702 35.9455 929.252 35.9455C929.802 35.9455 930.302 35.9955 930.852 36.0455H960V5.49707H959.95Z" fill="#EBE6E2"/>
<path d="M872.955 218.986C871.255 218.986 869.855 220.386 869.855 222.086V253.584C869.855 255.284 871.255 256.684 872.955 256.684C874.655 256.684 876.054 255.284 876.054 253.584V222.086C876.054 220.386 874.655 218.986 872.955 218.986Z" fill="#EBE6E2"/>
<path d="M774.01 337.48C774.01 339.18 775.41 340.58 777.11 340.58H808.608C810.308 340.58 811.708 339.18 811.708 337.48C811.708 335.78 810.308 334.38 808.608 334.38H777.11C775.36 334.38 774.01 335.78 774.01 337.48Z" fill="#EBE6E2"/>
<path d="M884.854 89.343C884.854 91.0429 886.254 92.4428 887.954 92.4428H919.452C921.152 92.4428 922.552 91.0429 922.552 89.343C922.552 87.6431 921.152 86.2432 919.452 86.2432H887.954C886.254 86.2432 884.854 87.6431 884.854 89.343Z" fill="#EBE6E2"/>
<path d="M0 488.212H959.95V1028.18H0V488.212Z" fill="#F0EEEC"/>
<path d="M499.224 913.09V595.107H468.626V905.54C468.776 906.19 468.826 906.84 468.826 907.54C468.826 908.24 468.776 908.89 468.626 909.54C467.676 914.29 463.476 917.94 458.426 917.94H198.74C196.39 918.09 194.04 918.44 191.79 918.99C191.59 919.04 191.44 919.09 191.24 919.14C174.841 923.39 162.492 937.689 161.192 955.138V1028.18H191.79V959.238C191.79 959.088 191.79 958.938 191.79 958.788C191.79 958.638 191.79 958.488 191.79 958.338C191.99 953.338 195.74 949.288 200.59 948.538C201.09 948.438 201.639 948.438 202.189 948.438C202.739 948.438 203.239 948.488 203.789 948.538H466.526C467.576 948.338 468.626 948.138 469.626 947.838C475.375 946.288 480.625 943.538 485.075 939.789C492.824 933.239 498.124 923.79 499.224 913.09Z" fill="#EBE6E2"/>
<path d="M672.315 514.261V488.212H641.817V506.711C641.967 507.361 642.017 508.011 642.017 508.711C642.017 509.411 641.967 510.061 641.817 510.711C640.867 515.461 636.717 519.06 631.667 519.06H506.074C503.724 519.21 501.374 519.56 499.174 520.11C498.974 520.16 498.824 520.21 498.624 520.26C482.275 524.51 469.926 538.759 468.676 556.109V611.556H499.174V560.258C499.174 560.108 499.174 559.958 499.174 559.808C499.174 559.658 499.174 559.508 499.174 559.358C499.374 554.409 503.124 550.309 507.924 549.609C508.424 549.509 508.974 549.509 509.523 549.509C510.073 549.509 510.573 549.559 511.123 549.609H639.717C640.767 549.409 641.767 549.209 642.817 548.909C648.566 547.359 653.816 544.609 658.216 540.909C665.915 534.36 671.215 524.91 672.315 514.261Z" fill="#EBE6E2"/>
<path d="M45.1977 538.159V488.212H75.6961V530.61C75.5461 531.26 75.4961 531.91 75.4961 532.61C75.4961 533.31 75.5461 533.96 75.6961 534.61C76.6461 539.359 80.7958 542.959 85.8456 542.959H237.488C239.838 543.109 242.187 543.459 244.387 544.009C244.587 544.059 244.737 544.109 244.937 544.159C261.286 548.409 273.636 562.658 274.886 580.007V729.149H244.387V584.157C244.387 584.007 244.387 583.857 244.387 583.707C244.387 583.557 244.387 583.407 244.387 583.257C244.187 578.307 240.438 574.207 235.638 573.507C235.138 573.407 234.588 573.408 234.038 573.408C233.488 573.408 232.988 573.457 232.438 573.507H77.896C76.846 573.307 75.8461 573.108 74.7962 572.808C69.0465 571.258 63.7967 568.508 59.397 564.808C51.5974 558.208 46.2976 548.809 45.1977 538.159Z" fill="#EBE6E2"/>
<path d="M76.896 963.337H0V932.839H69.3964C70.0464 932.989 70.6963 933.039 71.3963 933.039C72.0963 933.039 72.7462 932.989 73.3962 932.839C78.1459 931.889 81.7458 927.739 81.7458 922.69V755.648C81.8957 753.298 82.2457 750.948 82.7957 748.749C82.8457 748.549 82.8957 748.399 82.9457 748.199C87.1955 731.849 101.445 719.5 118.794 718.25H473.725V748.749H122.894C122.744 748.749 122.594 748.749 122.444 748.749C122.294 748.749 122.144 748.749 121.994 748.749C117.044 748.949 112.944 752.698 112.244 757.498C112.144 757.998 112.144 758.548 112.144 759.098C112.144 759.648 112.194 760.148 112.244 760.698V930.639C112.044 931.689 111.844 932.689 111.544 933.739C109.994 939.489 107.244 944.738 103.545 949.138C96.995 956.938 87.5955 962.237 76.896 963.337Z" fill="#EBE6E2"/>
<path d="M246.537 914.39C244.837 914.39 243.437 915.79 243.437 917.49V948.988C243.437 950.688 244.837 952.088 246.537 952.088C248.237 952.088 249.637 950.688 249.637 948.988V917.49C249.587 915.74 248.237 914.39 246.537 914.39Z" fill="#EBE6E2"/>
<path d="M401.179 914.39C399.479 914.39 398.079 915.79 398.079 917.49V948.988C398.079 950.688 399.479 952.088 401.179 952.088C402.879 952.088 404.279 950.688 404.279 948.988V917.49C404.229 915.74 402.879 914.39 401.179 914.39Z" fill="#EBE6E2"/>
<path d="M301.534 715.05C299.834 715.05 298.435 716.45 298.435 718.15V749.648C298.435 751.348 299.834 752.748 301.534 752.748C303.234 752.748 304.634 751.348 304.634 749.648V718.15C304.584 716.45 303.234 715.05 301.534 715.05Z" fill="#EBE6E2"/>
<path d="M202.339 715.05C200.64 715.05 199.24 716.45 199.24 718.15V749.648C199.24 751.348 200.64 752.748 202.339 752.748C204.039 752.748 205.439 751.348 205.439 749.648V718.15C205.439 716.45 204.039 715.05 202.339 715.05Z" fill="#EBE6E2"/>
<path d="M167.041 715.05C165.341 715.05 163.942 716.45 163.942 718.15V749.648C163.942 751.348 165.341 752.748 167.041 752.748C168.741 752.748 170.141 751.348 170.141 749.648V718.15C170.141 716.45 168.741 715.05 167.041 715.05Z" fill="#EBE6E2"/>
<path d="M171.241 539.259C169.541 539.259 168.141 540.659 168.141 542.359V573.858C168.141 575.558 169.541 576.958 171.241 576.958C172.941 576.958 174.341 575.558 174.341 573.858V542.359C174.341 540.659 172.941 539.259 171.241 539.259Z" fill="#EBE6E2"/>
<path d="M135.943 539.259C134.243 539.259 132.843 540.659 132.843 542.359V573.858C132.843 575.558 134.243 576.958 135.943 576.958C137.643 576.958 139.043 575.558 139.043 573.858V542.359C139.043 540.659 137.643 539.259 135.943 539.259Z" fill="#EBE6E2"/>
<path d="M588.119 515.711C586.42 515.711 585.02 517.111 585.02 518.811V550.309C585.02 552.009 586.42 553.409 588.119 553.409C589.819 553.409 591.219 552.009 591.219 550.309V518.811C591.169 517.111 589.819 515.711 588.119 515.711Z" fill="#EBE6E2"/>
<path d="M552.821 515.711C551.121 515.711 549.721 517.111 549.721 518.811V550.309C549.721 552.009 551.121 553.409 552.821 553.409C554.521 553.409 555.921 552.009 555.921 550.309V518.811C555.871 517.111 554.521 515.711 552.821 515.711Z" fill="#EBE6E2"/>
<path d="M241.188 631.105C241.188 632.805 242.587 634.205 244.287 634.205H275.786C277.486 634.205 278.886 632.805 278.886 631.105C278.886 629.405 277.486 628.005 275.786 628.005H244.287C242.537 628.005 241.188 629.355 241.188 631.105Z" fill="#EBE6E2"/>
<path d="M241.188 666.403C241.188 668.103 242.587 669.503 244.287 669.503H275.786C277.486 669.503 278.886 668.103 278.886 666.403C278.886 664.703 277.486 663.303 275.786 663.303H244.287C242.537 663.303 241.188 664.703 241.188 666.403Z" fill="#EBE6E2"/>
<path d="M421.978 715.05C420.278 715.05 418.878 716.45 418.878 718.15V749.648C418.878 751.348 420.278 752.748 421.978 752.748C423.678 752.748 425.078 751.348 425.078 749.648V718.15C425.078 716.45 423.678 715.05 421.978 715.05Z" fill="#EBE6E2"/>
<path d="M465.126 851.093C465.126 852.793 466.526 854.193 468.226 854.193H499.724C501.424 854.193 502.824 852.793 502.824 851.093C502.824 849.393 501.424 847.993 499.724 847.993H468.226C466.476 847.993 465.126 849.393 465.126 851.093Z" fill="#EBE6E2"/>
<path d="M77.9459 808.545C77.9459 810.245 79.3459 811.645 81.0458 811.645H112.544C114.244 811.645 115.644 810.245 115.644 808.545C115.644 806.845 114.244 805.445 112.544 805.445H81.0458C79.3459 805.495 77.9459 806.845 77.9459 808.545Z" fill="#EBE6E2"/>
<path d="M77.9459 867.693C77.9459 869.393 79.3459 870.792 81.0458 870.792H112.544C114.244 870.792 115.644 869.393 115.644 867.693C115.644 865.993 114.244 864.593 112.544 864.593H81.0458C79.3459 864.593 77.9459 865.993 77.9459 867.693Z" fill="#EBE6E2"/>
<path d="M465.126 677.302C465.126 679.002 466.526 680.402 468.226 680.402H499.724C501.424 680.402 502.824 679.002 502.824 677.302C502.824 675.602 501.424 674.202 499.724 674.202H468.226C466.476 674.252 465.126 675.602 465.126 677.302Z" fill="#EBE6E2"/>
<path d="M465.126 602.956C465.126 604.656 466.526 606.056 468.226 606.056H499.724C501.424 606.056 502.824 604.656 502.824 602.956C502.824 601.256 501.424 599.856 499.724 599.856H468.226C466.476 599.856 465.126 601.256 465.126 602.956Z" fill="#EBE6E2"/>
<path d="M778.06 719V488.212H808.658V711.45C808.508 712.1 808.458 712.75 808.458 713.45C808.458 714.15 808.508 714.8 808.658 715.45C809.608 720.2 813.808 723.85 818.857 723.85H959.95V754.448H810.808C809.758 754.248 808.708 754.048 807.708 753.748C801.958 752.198 796.709 749.449 792.259 745.699C784.459 739.149 779.159 729.7 778.06 719Z" fill="#EBE6E2"/>
<path d="M544.422 960.888V1028.18H574.92V968.437C574.77 967.787 574.72 967.137 574.72 966.437C574.72 965.737 574.77 965.087 574.92 964.437C575.87 959.688 580.02 956.088 585.069 956.088H736.762C739.111 955.938 741.461 955.588 743.661 955.038C743.861 954.988 744.011 954.938 744.211 954.888C760.56 950.638 772.91 936.389 774.16 919.04V879.242H743.661V914.89C743.661 915.04 743.661 915.19 743.661 915.34C743.661 915.49 743.661 915.64 743.661 915.79C743.461 920.74 739.711 924.839 734.912 925.539C734.412 925.639 733.862 925.639 733.312 925.639C732.762 925.639 732.262 925.589 731.712 925.539H577.07C576.02 925.739 575.02 925.939 573.97 926.239C568.22 927.789 562.971 930.539 558.571 934.239C550.821 940.839 545.522 950.238 544.422 960.888Z" fill="#EBE6E2"/>
<path d="M575.07 635.654H498.174V666.153H567.57C568.22 666.003 568.87 665.953 569.57 665.953C570.27 665.953 570.92 666.003 571.57 666.153C576.32 667.103 579.92 671.252 579.92 676.302V843.343C580.07 845.693 580.42 848.043 580.97 850.243C581.02 850.443 581.07 850.593 581.12 850.793C585.37 867.142 599.619 879.492 616.968 880.741H959.95V850.243H621.068C620.918 850.243 620.768 850.243 620.618 850.243C620.468 850.243 620.318 850.243 620.168 850.243C615.218 850.043 611.118 846.293 610.418 841.493C610.318 840.994 610.318 840.444 610.318 839.894C610.318 839.344 610.368 838.844 610.418 838.294V668.253C610.218 667.203 610.018 666.203 609.718 665.153C608.168 659.403 605.418 654.153 601.719 649.753C595.169 642.004 585.719 636.754 575.07 635.654Z" fill="#EBE6E2"/>
<path d="M800.758 750.499C799.058 750.499 797.658 749.099 797.658 747.399V715.9C797.658 714.2 799.058 712.801 800.758 712.801C802.458 712.801 803.858 714.2 803.858 715.9V747.399C803.808 749.099 802.458 750.499 800.758 750.499Z" fill="#EBE6E2"/>
<path d="M824.007 884.741C822.307 884.741 820.907 883.342 820.907 881.642V850.143C820.907 848.443 822.307 847.043 824.007 847.043C825.707 847.043 827.107 848.443 827.107 850.143V881.642C827.057 883.392 825.707 884.741 824.007 884.741Z" fill="#EBE6E2"/>
<path d="M670.465 883.942C668.765 883.942 667.365 882.542 667.365 880.842V849.343C667.365 847.644 668.765 846.244 670.465 846.244C672.165 846.244 673.565 847.644 673.565 849.343V880.842C673.565 882.542 672.165 883.942 670.465 883.942Z" fill="#EBE6E2"/>
<path d="M635.167 883.942C633.467 883.942 632.067 882.542 632.067 880.842V849.343C632.067 847.644 633.467 846.244 635.167 846.244C636.867 846.244 638.267 847.644 638.267 849.343V880.842C638.267 882.542 636.867 883.942 635.167 883.942Z" fill="#EBE6E2"/>
<path d="M740.362 914.39C740.362 912.69 741.761 911.29 743.461 911.29H774.96C776.66 911.29 778.06 912.69 778.06 914.39C778.06 916.09 776.66 917.49 774.96 917.49H743.461C741.761 917.44 740.362 916.09 740.362 914.39Z" fill="#EBE6E2"/>
<path d="M688.264 921.34C689.964 921.34 691.364 922.739 691.364 924.439V955.938C691.364 957.638 689.964 959.038 688.264 959.038C686.564 959.038 685.164 957.638 685.164 955.938V924.439C685.164 922.739 686.564 921.34 688.264 921.34Z" fill="#EBE6E2"/>
<path d="M614.818 921.34C616.518 921.34 617.918 922.739 617.918 924.439V955.938C617.918 957.638 616.518 959.038 614.818 959.038C613.118 959.038 611.718 957.638 611.718 955.938V924.439C611.768 922.739 613.118 921.34 614.818 921.34Z" fill="#EBE6E2"/>
<path d="M577.17 799.146C577.17 797.446 578.57 796.046 580.27 796.046H611.768C613.468 796.046 614.868 797.446 614.868 799.146C614.868 800.846 613.468 802.246 611.768 802.246H580.27C578.52 802.246 577.17 800.846 577.17 799.146Z" fill="#EBE6E2"/>
<path d="M921.202 758.198C919.502 758.198 918.102 756.798 918.102 755.098V723.6C918.102 721.9 919.502 720.5 921.202 720.5C922.902 720.5 924.302 721.9 924.302 723.6V755.098C924.302 756.798 922.902 758.198 921.202 758.198Z" fill="#EBE6E2"/>
<path d="M577.17 730.25C577.17 728.55 578.57 727.15 580.27 727.15H611.768C613.468 727.15 614.868 728.55 614.868 730.25C614.868 731.949 613.468 733.349 611.768 733.349H580.27C578.52 733.299 577.17 731.949 577.17 730.25Z" fill="#EBE6E2"/>
<path d="M774.01 597.857C774.01 596.157 775.41 594.757 777.11 594.757H808.608C810.308 594.757 811.708 596.157 811.708 597.857C811.708 599.557 810.308 600.957 808.608 600.957H777.11C775.36 600.957 774.01 599.557 774.01 597.857Z" fill="#EBE6E2"/>
<path d="M959.95 971.687H925.802C923.452 971.537 921.102 971.187 918.902 970.637C918.702 970.587 918.552 970.537 918.352 970.487C902.003 966.237 889.654 951.988 888.404 934.639V879.192H918.902V930.489C918.902 930.639 918.902 930.789 918.902 930.939C918.902 931.089 918.902 931.239 918.902 931.389C919.102 936.339 922.852 940.439 927.652 941.139C928.152 941.239 928.702 941.239 929.252 941.239C929.802 941.239 930.302 941.189 930.852 941.139H960V971.687H959.95Z" fill="#EBE6E2"/>
<path d="M872.955 758.198C871.255 758.198 869.855 756.798 869.855 755.098V723.6C869.855 721.9 871.255 720.5 872.955 720.5C874.655 720.5 876.054 721.9 876.054 723.6V755.098C876.054 756.798 874.655 758.198 872.955 758.198Z" fill="#EBE6E2"/>
<path d="M774.01 639.704C774.01 638.004 775.41 636.604 777.11 636.604H808.608C810.308 636.604 811.708 638.004 811.708 639.704C811.708 641.404 810.308 642.804 808.608 642.804H777.11C775.36 642.804 774.01 641.404 774.01 639.704Z" fill="#EBE6E2"/>
<path d="M884.854 887.841C884.854 886.141 886.254 884.741 887.954 884.741H919.452C921.152 884.741 922.552 886.141 922.552 887.841C922.552 889.541 921.152 890.941 919.452 890.941H887.954C886.254 890.941 884.854 889.541 884.854 887.841Z" fill="#EBE6E2"/>
<path d="M1920 488.972H960.05V-51H1920V488.972Z" fill="#F0EEEC"/>
<path d="M1420.78 64.094V382.077H1451.37V71.6436C1451.22 70.9937 1451.17 70.3437 1451.17 69.6437C1451.17 68.9438 1451.22 68.2938 1451.37 67.6438C1452.32 62.8941 1456.52 59.2443 1461.57 59.2443H1721.26C1723.61 59.0943 1725.96 58.7443 1728.21 58.1943C1728.41 58.1443 1728.56 58.0943 1728.76 58.0443C1745.16 53.7946 1757.51 39.4953 1758.81 22.0462V-51H1728.21V17.9464C1728.21 18.0964 1728.21 18.2464 1728.21 18.3964C1728.21 18.5464 1728.21 18.6964 1728.21 18.8464C1728.01 23.8461 1724.26 27.8959 1719.41 28.6459C1718.91 28.7459 1718.36 28.7459 1717.81 28.7459C1717.26 28.7459 1716.76 28.6959 1716.21 28.6459H1453.47C1452.42 28.8458 1451.37 29.0458 1450.37 29.3458C1444.62 30.8957 1439.38 33.6456 1434.93 37.3954C1427.18 43.9451 1421.88 53.3946 1420.78 64.094Z" fill="#EBE6E2"/>
<path d="M1247.68 462.923V488.972H1278.18V470.473C1278.03 469.823 1277.98 469.173 1277.98 468.473C1277.98 467.773 1278.03 467.123 1278.18 466.473C1279.13 461.723 1283.28 458.124 1288.33 458.124H1413.93C1416.28 457.974 1418.63 457.624 1420.83 457.074C1421.03 457.024 1421.18 456.974 1421.38 456.924C1437.73 452.674 1450.07 438.425 1451.32 421.076V365.628H1420.83V416.926C1420.83 417.076 1420.83 417.226 1420.83 417.376C1420.83 417.526 1420.83 417.676 1420.83 417.826C1420.63 422.775 1416.88 426.875 1412.08 427.575C1411.58 427.675 1411.03 427.675 1410.48 427.675C1409.93 427.675 1409.43 427.625 1408.88 427.575H1280.28C1279.23 427.775 1278.23 427.975 1277.18 428.275C1271.43 429.825 1266.18 432.575 1261.78 436.275C1254.08 442.824 1248.78 452.274 1247.68 462.923Z" fill="#EBE6E2"/>
<path d="M1874.8 439.025V488.972H1844.3V446.574C1844.45 445.924 1844.5 445.274 1844.5 444.574C1844.5 443.875 1844.45 443.225 1844.3 442.575C1843.35 437.825 1839.2 434.225 1834.15 434.225H1682.51C1680.16 434.075 1677.81 433.725 1675.61 433.175C1675.41 433.125 1675.26 433.075 1675.06 433.025C1658.71 428.775 1646.36 414.526 1645.11 397.177V248.035H1675.61V393.027C1675.61 393.177 1675.61 393.327 1675.61 393.477C1675.61 393.627 1675.61 393.777 1675.61 393.927C1675.81 398.877 1679.56 402.977 1684.36 403.677C1684.86 403.777 1685.41 403.777 1685.96 403.777C1686.51 403.777 1687.01 403.727 1687.56 403.677H1842.1C1843.15 403.877 1844.15 404.077 1845.2 404.377C1850.95 405.926 1856.2 408.676 1860.6 412.376C1868.4 418.976 1873.7 428.375 1874.8 439.025Z" fill="#EBE6E2"/>
<path d="M1843.1 13.8467H1920V44.3451H1850.6C1849.95 44.1951 1849.3 44.1451 1848.6 44.1451C1847.9 44.1451 1847.25 44.1951 1846.6 44.3451C1841.85 45.295 1838.25 49.4448 1838.25 54.4946V221.536C1838.1 223.886 1837.75 226.236 1837.2 228.436C1837.15 228.636 1837.1 228.786 1837.05 228.985C1832.8 245.335 1818.56 257.684 1801.21 258.934H1446.27V228.436H1797.11C1797.26 228.436 1797.41 228.436 1797.56 228.436C1797.71 228.436 1797.86 228.436 1798.01 228.436C1802.96 228.236 1807.06 224.486 1807.76 219.686C1807.86 219.186 1807.86 218.636 1807.86 218.086C1807.86 217.536 1807.81 217.036 1807.76 216.486V46.545C1807.96 45.495 1808.16 44.4951 1808.46 43.4451C1810.01 37.6954 1812.76 32.4457 1816.46 28.0459C1823.01 20.2464 1832.4 14.9466 1843.1 13.8467Z" fill="#EBE6E2"/>
<path d="M1673.46 62.7938C1675.16 62.7938 1676.56 61.3938 1676.56 59.6939V28.1955C1676.56 26.4956 1675.16 25.0957 1673.46 25.0957C1671.76 25.0957 1670.36 26.4956 1670.36 28.1955V59.6939C1670.41 61.4438 1671.76 62.7938 1673.46 62.7938Z" fill="#EBE6E2"/>
<path d="M1518.82 62.7938C1520.52 62.7938 1521.92 61.3938 1521.92 59.6939V28.1955C1521.92 26.4956 1520.52 25.0957 1518.82 25.0957C1517.12 25.0957 1515.72 26.4956 1515.72 28.1955V59.6939C1515.77 61.4438 1517.12 62.7938 1518.82 62.7938Z" fill="#EBE6E2"/>
<path d="M1618.47 262.134C1620.17 262.134 1621.57 260.734 1621.57 259.034V227.535C1621.57 225.835 1620.17 224.436 1618.47 224.436C1616.77 224.436 1615.37 225.835 1615.37 227.535V259.034C1615.42 260.734 1616.77 262.134 1618.47 262.134Z" fill="#EBE6E2"/>
<path d="M1717.66 262.134C1719.36 262.134 1720.76 260.734 1720.76 259.034V227.535C1720.76 225.835 1719.36 224.436 1717.66 224.436C1715.96 224.436 1714.56 225.835 1714.56 227.535V259.034C1714.56 260.734 1715.96 262.134 1717.66 262.134Z" fill="#EBE6E2"/>
<path d="M1752.96 262.134C1754.66 262.134 1756.06 260.734 1756.06 259.034V227.535C1756.06 225.835 1754.66 224.436 1752.96 224.436C1751.26 224.436 1749.86 225.835 1749.86 227.535V259.034C1749.86 260.734 1751.26 262.134 1752.96 262.134Z" fill="#EBE6E2"/>
<path d="M1748.76 437.924C1750.46 437.924 1751.86 436.524 1751.86 434.825V403.326C1751.86 401.626 1750.46 400.226 1748.76 400.226C1747.06 400.226 1745.66 401.626 1745.66 403.326V434.825C1745.66 436.524 1747.06 437.924 1748.76 437.924Z" fill="#EBE6E2"/>
<path d="M1784.06 437.924C1785.76 437.924 1787.16 436.524 1787.16 434.825V403.326C1787.16 401.626 1785.76 400.226 1784.06 400.226C1782.36 400.226 1780.96 401.626 1780.96 403.326V434.825C1780.96 436.524 1782.36 437.924 1784.06 437.924Z" fill="#EBE6E2"/>
<path d="M1331.88 461.473C1333.58 461.473 1334.98 460.073 1334.98 458.373V426.875C1334.98 425.175 1333.58 423.775 1331.88 423.775C1330.18 423.775 1328.78 425.175 1328.78 426.875V458.373C1328.83 460.073 1330.18 461.473 1331.88 461.473Z" fill="#EBE6E2"/>
<path d="M1367.18 461.473C1368.88 461.473 1370.28 460.073 1370.28 458.373V426.875C1370.28 425.175 1368.88 423.775 1367.18 423.775C1365.48 423.775 1364.08 425.175 1364.08 426.875V458.373C1364.13 460.073 1365.48 461.473 1367.18 461.473Z" fill="#EBE6E2"/>
<path d="M1678.81 346.079C1678.81 344.379 1677.41 342.979 1675.71 342.979H1644.21C1642.51 342.979 1641.11 344.379 1641.11 346.079C1641.11 347.779 1642.51 349.179 1644.21 349.179H1675.71C1677.46 349.179 1678.81 347.829 1678.81 346.079Z" fill="#EBE6E2"/>
<path d="M1678.81 310.781C1678.81 309.081 1677.41 307.681 1675.71 307.681H1644.21C1642.51 307.681 1641.11 309.081 1641.11 310.781C1641.11 312.481 1642.51 313.881 1644.21 313.881H1675.71C1677.46 313.881 1678.81 312.481 1678.81 310.781Z" fill="#EBE6E2"/>
<path d="M1498.02 262.134C1499.72 262.134 1501.12 260.734 1501.12 259.034V227.535C1501.12 225.835 1499.72 224.436 1498.02 224.436C1496.32 224.436 1494.92 225.835 1494.92 227.535V259.034C1494.92 260.734 1496.32 262.134 1498.02 262.134Z" fill="#EBE6E2"/>
<path d="M1454.87 126.091C1454.87 124.391 1453.47 122.991 1451.77 122.991H1420.28C1418.58 122.991 1417.18 124.391 1417.18 126.091C1417.18 127.791 1418.58 129.191 1420.28 129.191H1451.77C1453.52 129.191 1454.87 127.791 1454.87 126.091Z" fill="#EBE6E2"/>
<path d="M1842.05 168.638C1842.05 166.938 1840.65 165.539 1838.95 165.539H1807.46C1805.76 165.539 1804.36 166.938 1804.36 168.638C1804.36 170.338 1805.76 171.738 1807.46 171.738H1838.95C1840.65 171.688 1842.05 170.338 1842.05 168.638Z" fill="#EBE6E2"/>
<path d="M1842.05 109.491C1842.05 107.792 1840.65 106.392 1838.95 106.392H1807.46C1805.76 106.392 1804.36 107.792 1804.36 109.491C1804.36 111.191 1805.76 112.591 1807.46 112.591H1838.95C1840.65 112.591 1842.05 111.191 1842.05 109.491Z" fill="#EBE6E2"/>
<path d="M1454.87 299.882C1454.87 298.182 1453.47 296.782 1451.77 296.782H1420.28C1418.58 296.782 1417.18 298.182 1417.18 299.882C1417.18 301.582 1418.58 302.982 1420.28 302.982H1451.77C1453.52 302.932 1454.87 301.582 1454.87 299.882Z" fill="#EBE6E2"/>
<path d="M1454.87 374.228C1454.87 372.528 1453.47 371.128 1451.77 371.128H1420.28C1418.58 371.128 1417.18 372.528 1417.18 374.228C1417.18 375.928 1418.58 377.328 1420.28 377.328H1451.77C1453.52 377.328 1454.87 375.928 1454.87 374.228Z" fill="#EBE6E2"/>
<path d="M1141.94 258.184V488.972H1111.34V265.734C1111.49 265.084 1111.54 264.434 1111.54 263.734C1111.54 263.034 1111.49 262.384 1111.34 261.734C1110.39 256.984 1106.19 253.334 1101.14 253.334H960.05V222.736H1109.19C1110.24 222.936 1111.29 223.136 1112.29 223.436C1118.04 224.986 1123.29 227.736 1127.74 231.485C1135.54 238.035 1140.84 247.485 1141.94 258.184Z" fill="#EBE6E2"/>
<path d="M1375.58 16.2965V-51H1345.08V8.74689C1345.23 9.39686 1345.28 10.0468 1345.28 10.7468C1345.28 11.4468 1345.23 12.0967 1345.08 12.7467C1344.13 17.4964 1339.98 21.0962 1334.93 21.0962H1183.24C1180.89 21.2462 1178.54 21.5962 1176.34 22.1462C1176.14 22.1962 1175.99 22.2462 1175.79 22.2962C1159.44 26.546 1147.09 40.7952 1145.84 58.1443V97.9422H1176.34V62.2941C1176.34 62.1441 1176.34 61.9941 1176.34 61.8441C1176.34 61.6941 1176.34 61.5441 1176.34 61.3941C1176.54 56.4444 1180.29 52.3446 1185.09 51.6447C1185.59 51.5447 1186.14 51.5447 1186.69 51.5447C1187.24 51.5447 1187.74 51.5947 1188.29 51.6447H1342.93C1343.98 51.4447 1344.98 51.2447 1346.03 50.9447C1351.78 49.3948 1357.03 46.6449 1361.43 42.9451C1369.18 36.3455 1374.48 26.9459 1375.58 16.2965Z" fill="#EBE6E2"/>
<path d="M1344.93 341.53H1421.83V311.031H1352.43C1351.78 311.181 1351.13 311.231 1350.43 311.231C1349.73 311.231 1349.08 311.181 1348.43 311.031C1343.68 310.081 1340.08 305.931 1340.08 300.882V133.84C1339.93 131.491 1339.58 129.141 1339.03 126.941C1338.98 126.741 1338.93 126.591 1338.88 126.391C1334.63 110.042 1320.38 97.6923 1303.03 96.4424H960.05V126.941H1298.93C1299.08 126.941 1299.23 126.941 1299.38 126.941C1299.53 126.941 1299.68 126.941 1299.83 126.941C1304.78 127.141 1308.88 130.891 1309.58 135.69C1309.68 136.19 1309.68 136.74 1309.68 137.29C1309.68 137.84 1309.63 138.34 1309.58 138.89V308.931C1309.78 309.981 1309.98 310.981 1310.28 312.031C1311.83 317.781 1314.58 323.031 1318.28 327.43C1324.83 335.18 1334.28 340.43 1344.93 341.53Z" fill="#EBE6E2"/>
<path d="M1119.24 226.685C1120.94 226.685 1122.34 228.085 1122.34 229.785V261.283C1122.34 262.983 1120.94 264.383 1119.24 264.383C1117.54 264.383 1116.14 262.983 1116.14 261.283V229.785C1116.19 228.085 1117.54 226.685 1119.24 226.685Z" fill="#EBE6E2"/>
<path d="M1095.99 92.4424C1097.69 92.4424 1099.09 93.8423 1099.09 95.5422V127.041C1099.09 128.741 1097.69 130.14 1095.99 130.14C1094.29 130.14 1092.89 128.741 1092.89 127.041V95.5422C1092.94 93.7923 1094.29 92.4424 1095.99 92.4424Z" fill="#EBE6E2"/>
<path d="M1249.53 93.2424C1251.23 93.2424 1252.63 94.6424 1252.63 96.3423V127.841C1252.63 129.541 1251.23 130.94 1249.53 130.94C1247.83 130.94 1246.44 129.541 1246.44 127.841V96.3423C1246.44 94.6424 1247.83 93.2424 1249.53 93.2424Z" fill="#EBE6E2"/>
<path d="M1284.83 93.2424C1286.53 93.2424 1287.93 94.6424 1287.93 96.3423V127.841C1287.93 129.541 1286.53 130.94 1284.83 130.94C1283.13 130.94 1281.73 129.541 1281.73 127.841V96.3423C1281.73 94.6424 1283.13 93.2424 1284.83 93.2424Z" fill="#EBE6E2"/>
<path d="M1179.64 62.7939C1179.64 64.4938 1178.24 65.8938 1176.54 65.8938H1145.04C1143.34 65.8938 1141.94 64.4938 1141.94 62.7939C1141.94 61.094 1143.34 59.6941 1145.04 59.6941H1176.54C1178.24 59.7441 1179.64 61.094 1179.64 62.7939Z" fill="#EBE6E2"/>
<path d="M1231.74 55.8445C1230.04 55.8445 1228.64 54.4446 1228.64 52.7447V21.2463C1228.64 19.5464 1230.04 18.1465 1231.74 18.1465C1233.44 18.1465 1234.84 19.5464 1234.84 21.2463V52.7447C1234.84 54.4446 1233.44 55.8445 1231.74 55.8445Z" fill="#EBE6E2"/>
<path d="M1305.18 55.8445C1303.48 55.8445 1302.08 54.4446 1302.08 52.7447V21.2463C1302.08 19.5464 1303.48 18.1465 1305.18 18.1465C1306.88 18.1465 1308.28 19.5464 1308.28 21.2463V52.7447C1308.23 54.4446 1306.88 55.8445 1305.18 55.8445Z" fill="#EBE6E2"/>
<path d="M1342.83 178.038C1342.83 179.738 1341.43 181.138 1339.73 181.138H1308.23C1306.53 181.138 1305.13 179.738 1305.13 178.038C1305.13 176.338 1306.53 174.938 1308.23 174.938H1339.73C1341.48 174.938 1342.83 176.338 1342.83 178.038Z" fill="#EBE6E2"/>
<path d="M998.798 218.986C1000.5 218.986 1001.9 220.386 1001.9 222.086V253.584C1001.9 255.284 1000.5 256.684 998.798 256.684C997.098 256.684 995.698 255.284 995.698 253.584V222.086C995.698 220.386 997.098 218.986 998.798 218.986Z" fill="#EBE6E2"/>
<path d="M1342.83 246.935C1342.83 248.634 1341.43 250.034 1339.73 250.034H1308.23C1306.53 250.034 1305.13 248.634 1305.13 246.935C1305.13 245.235 1306.53 243.835 1308.23 243.835H1339.73C1341.48 243.885 1342.83 245.235 1342.83 246.935Z" fill="#EBE6E2"/>
<path d="M1145.99 379.327C1145.99 381.027 1144.59 382.427 1142.89 382.427H1111.39C1109.69 382.427 1108.29 381.027 1108.29 379.327C1108.29 377.627 1109.69 376.228 1111.39 376.228H1142.89C1144.64 376.228 1145.99 377.627 1145.99 379.327Z" fill="#EBE6E2"/>
<path d="M960.05 5.49707H994.198C996.548 5.64706 998.898 5.99704 1001.1 6.54701C1001.3 6.59701 1001.45 6.64701 1001.65 6.69701C1018 10.9468 1030.35 25.196 1031.6 42.5451V97.9923H1001.1V46.6949C1001.1 46.5449 1001.1 46.3949 1001.1 46.245C1001.1 46.095 1001.1 45.945 1001.1 45.795C1000.9 40.8452 997.148 36.7454 992.348 36.0455C991.848 35.9455 991.298 35.9455 990.748 35.9455C990.198 35.9455 989.698 35.9955 989.148 36.0455H960V5.49707H960.05Z" fill="#EBE6E2"/>
<path d="M1047.05 218.986C1048.75 218.986 1050.15 220.386 1050.15 222.086V253.584C1050.15 255.284 1048.75 256.684 1047.05 256.684C1045.35 256.684 1043.95 255.284 1043.95 253.584V222.086C1043.95 220.386 1045.35 218.986 1047.05 218.986Z" fill="#EBE6E2"/>
<path d="M1145.99 337.48C1145.99 339.18 1144.59 340.58 1142.89 340.58H1111.39C1109.69 340.58 1108.29 339.18 1108.29 337.48C1108.29 335.78 1109.69 334.38 1111.39 334.38H1142.89C1144.64 334.38 1145.99 335.78 1145.99 337.48Z" fill="#EBE6E2"/>
<path d="M1035.15 89.343C1035.15 91.0429 1033.75 92.4428 1032.05 92.4428H1000.55C998.848 92.4428 997.448 91.0429 997.448 89.343C997.448 87.6431 998.848 86.2432 1000.55 86.2432H1032.05C1033.75 86.2432 1035.15 87.6431 1035.15 89.343Z" fill="#EBE6E2"/>
<path d="M1920 488.212H960.05V1028.18H1920V488.212Z" fill="#F0EEEC"/>
<path d="M1420.78 913.09V595.107H1451.37V905.54C1451.22 906.19 1451.17 906.84 1451.17 907.54C1451.17 908.24 1451.22 908.89 1451.37 909.54C1452.32 914.29 1456.52 917.94 1461.57 917.94H1721.26C1723.61 918.09 1725.96 918.44 1728.21 918.99C1728.41 919.04 1728.56 919.09 1728.76 919.14C1745.16 923.39 1757.51 937.689 1758.81 955.138V1028.18H1728.21V959.238C1728.21 959.088 1728.21 958.938 1728.21 958.788C1728.21 958.638 1728.21 958.488 1728.21 958.338C1728.01 953.338 1724.26 949.288 1719.41 948.538C1718.91 948.438 1718.36 948.438 1717.81 948.438C1717.26 948.438 1716.76 948.488 1716.21 948.538H1453.47C1452.42 948.338 1451.37 948.138 1450.37 947.838C1444.62 946.288 1439.38 943.538 1434.93 939.789C1427.18 933.239 1421.88 923.79 1420.78 913.09Z" fill="#EBE6E2"/>
<path d="M1247.68 514.261V488.212H1278.18V506.711C1278.03 507.361 1277.98 508.011 1277.98 508.711C1277.98 509.411 1278.03 510.061 1278.18 510.711C1279.13 515.461 1283.28 519.06 1288.33 519.06H1413.93C1416.28 519.21 1418.63 519.56 1420.83 520.11C1421.03 520.16 1421.18 520.21 1421.38 520.26C1437.73 524.51 1450.07 538.759 1451.32 556.109V611.556H1420.83V560.258C1420.83 560.108 1420.83 559.958 1420.83 559.808C1420.83 559.658 1420.83 559.508 1420.83 559.358C1420.63 554.409 1416.88 550.309 1412.08 549.609C1411.58 549.509 1411.03 549.509 1410.48 549.509C1409.93 549.509 1409.43 549.559 1408.88 549.609H1280.28C1279.23 549.409 1278.23 549.209 1277.18 548.909C1271.43 547.359 1266.18 544.609 1261.78 540.909C1254.08 534.36 1248.78 524.91 1247.68 514.261Z" fill="#EBE6E2"/>
<path d="M1874.8 538.159V488.212H1844.3V530.61C1844.45 531.26 1844.5 531.91 1844.5 532.61C1844.5 533.31 1844.45 533.96 1844.3 534.61C1843.35 539.359 1839.2 542.959 1834.15 542.959H1682.51C1680.16 543.109 1677.81 543.459 1675.61 544.009C1675.41 544.059 1675.26 544.109 1675.06 544.159C1658.71 548.409 1646.36 562.658 1645.11 580.007V729.149H1675.61V584.157C1675.61 584.007 1675.61 583.857 1675.61 583.707C1675.61 583.557 1675.61 583.407 1675.61 583.257C1675.81 578.307 1679.56 574.207 1684.36 573.507C1684.86 573.407 1685.41 573.408 1685.96 573.408C1686.51 573.408 1687.01 573.457 1687.56 573.507H1842.1C1843.15 573.307 1844.15 573.108 1845.2 572.808C1850.95 571.258 1856.2 568.508 1860.6 564.808C1868.4 558.208 1873.7 548.809 1874.8 538.159Z" fill="#EBE6E2"/>
<path d="M1843.1 963.337H1920V932.839H1850.6C1849.95 932.989 1849.3 933.039 1848.6 933.039C1847.9 933.039 1847.25 932.989 1846.6 932.839C1841.85 931.889 1838.25 927.739 1838.25 922.69V755.648C1838.1 753.298 1837.75 750.948 1837.2 748.749C1837.15 748.549 1837.1 748.399 1837.05 748.199C1832.8 731.849 1818.56 719.5 1801.21 718.25H1446.27V748.749H1797.11C1797.26 748.749 1797.41 748.749 1797.56 748.749C1797.71 748.749 1797.86 748.749 1798.01 748.749C1802.96 748.949 1807.06 752.698 1807.76 757.498C1807.86 757.998 1807.86 758.548 1807.86 759.098C1807.86 759.648 1807.81 760.148 1807.76 760.698V930.639C1807.96 931.689 1808.16 932.689 1808.46 933.739C1810.01 939.489 1812.76 944.738 1816.46 949.138C1823.01 956.938 1832.4 962.237 1843.1 963.337Z" fill="#EBE6E2"/>
<path d="M1673.46 914.39C1675.16 914.39 1676.56 915.79 1676.56 917.49V948.988C1676.56 950.688 1675.16 952.088 1673.46 952.088C1671.76 952.088 1670.36 950.688 1670.36 948.988V917.49C1670.41 915.74 1671.76 914.39 1673.46 914.39Z" fill="#EBE6E2"/>
<path d="M1518.82 914.39C1520.52 914.39 1521.92 915.79 1521.92 917.49V948.988C1521.92 950.688 1520.52 952.088 1518.82 952.088C1517.12 952.088 1515.72 950.688 1515.72 948.988V917.49C1515.77 915.74 1517.12 914.39 1518.82 914.39Z" fill="#EBE6E2"/>
<path d="M1618.47 715.05C1620.17 715.05 1621.57 716.45 1621.57 718.15V749.648C1621.57 751.348 1620.17 752.748 1618.47 752.748C1616.77 752.748 1615.37 751.348 1615.37 749.648V718.15C1615.42 716.45 1616.77 715.05 1618.47 715.05Z" fill="#EBE6E2"/>
<path d="M1717.66 715.05C1719.36 715.05 1720.76 716.45 1720.76 718.15V749.648C1720.76 751.348 1719.36 752.748 1717.66 752.748C1715.96 752.748 1714.56 751.348 1714.56 749.648V718.15C1714.56 716.45 1715.96 715.05 1717.66 715.05Z" fill="#EBE6E2"/>
<path d="M1752.96 715.05C1754.66 715.05 1756.06 716.45 1756.06 718.15V749.648C1756.06 751.348 1754.66 752.748 1752.96 752.748C1751.26 752.748 1749.86 751.348 1749.86 749.648V718.15C1749.86 716.45 1751.26 715.05 1752.96 715.05Z" fill="#EBE6E2"/>
<path d="M1748.76 539.259C1750.46 539.259 1751.86 540.659 1751.86 542.359V573.858C1751.86 575.558 1750.46 576.958 1748.76 576.958C1747.06 576.958 1745.66 575.558 1745.66 573.858V542.359C1745.66 540.659 1747.06 539.259 1748.76 539.259Z" fill="#EBE6E2"/>
<path d="M1784.06 539.259C1785.76 539.259 1787.16 540.659 1787.16 542.359V573.858C1787.16 575.558 1785.76 576.958 1784.06 576.958C1782.36 576.958 1780.96 575.558 1780.96 573.858V542.359C1780.96 540.659 1782.36 539.259 1784.06 539.259Z" fill="#EBE6E2"/>
<path d="M1331.88 515.711C1333.58 515.711 1334.98 517.111 1334.98 518.811V550.309C1334.98 552.009 1333.58 553.409 1331.88 553.409C1330.18 553.409 1328.78 552.009 1328.78 550.309V518.811C1328.83 517.111 1330.18 515.711 1331.88 515.711Z" fill="#EBE6E2"/>
<path d="M1367.18 515.711C1368.88 515.711 1370.28 517.111 1370.28 518.811V550.309C1370.28 552.009 1368.88 553.409 1367.18 553.409C1365.48 553.409 1364.08 552.009 1364.08 550.309V518.811C1364.13 517.111 1365.48 515.711 1367.18 515.711Z" fill="#EBE6E2"/>
<path d="M1678.81 631.105C1678.81 632.805 1677.41 634.205 1675.71 634.205H1644.21C1642.51 634.205 1641.11 632.805 1641.11 631.105C1641.11 629.405 1642.51 628.005 1644.21 628.005H1675.71C1677.46 628.005 1678.81 629.355 1678.81 631.105Z" fill="#EBE6E2"/>
<path d="M1678.81 666.403C1678.81 668.103 1677.41 669.503 1675.71 669.503H1644.21C1642.51 669.503 1641.11 668.103 1641.11 666.403C1641.11 664.703 1642.51 663.303 1644.21 663.303H1675.71C1677.46 663.303 1678.81 664.703 1678.81 666.403Z" fill="#EBE6E2"/>
<path d="M1498.02 715.05C1499.72 715.05 1501.12 716.45 1501.12 718.15V749.648C1501.12 751.348 1499.72 752.748 1498.02 752.748C1496.32 752.748 1494.92 751.348 1494.92 749.648V718.15C1494.92 716.45 1496.32 715.05 1498.02 715.05Z" fill="#EBE6E2"/>
<path d="M1454.87 851.093C1454.87 852.793 1453.47 854.193 1451.77 854.193H1420.28C1418.58 854.193 1417.18 852.793 1417.18 851.093C1417.18 849.393 1418.58 847.993 1420.28 847.993H1451.77C1453.52 847.993 1454.87 849.393 1454.87 851.093Z" fill="#EBE6E2"/>
<path d="M1842.05 808.545C1842.05 810.245 1840.65 811.645 1838.95 811.645H1807.46C1805.76 811.645 1804.36 810.245 1804.36 808.545C1804.36 806.845 1805.76 805.445 1807.46 805.445H1838.95C1840.65 805.495 1842.05 806.845 1842.05 808.545Z" fill="#EBE6E2"/>
<path d="M1842.05 867.693C1842.05 869.393 1840.65 870.792 1838.95 870.792H1807.46C1805.76 870.792 1804.36 869.393 1804.36 867.693C1804.36 865.993 1805.76 864.593 1807.46 864.593H1838.95C1840.65 864.593 1842.05 865.993 1842.05 867.693Z" fill="#EBE6E2"/>
<path d="M1454.87 677.302C1454.87 679.002 1453.47 680.402 1451.77 680.402H1420.28C1418.58 680.402 1417.18 679.002 1417.18 677.302C1417.18 675.602 1418.58 674.202 1420.28 674.202H1451.77C1453.52 674.252 1454.87 675.602 1454.87 677.302Z" fill="#EBE6E2"/>
<path d="M1454.87 602.956C1454.87 604.656 1453.47 606.056 1451.77 606.056H1420.28C1418.58 606.056 1417.18 604.656 1417.18 602.956C1417.18 601.256 1418.58 599.856 1420.28 599.856H1451.77C1453.52 599.856 1454.87 601.256 1454.87 602.956Z" fill="#EBE6E2"/>
<path d="M1141.94 719V488.212H1111.34V711.45C1111.49 712.1 1111.54 712.75 1111.54 713.45C1111.54 714.15 1111.49 714.8 1111.34 715.45C1110.39 720.2 1106.19 723.85 1101.14 723.85H960.05V754.448H1109.19C1110.24 754.248 1111.29 754.048 1112.29 753.748C1118.04 752.198 1123.29 749.449 1127.74 745.699C1135.54 739.149 1140.84 729.7 1141.94 719Z" fill="#EBE6E2"/>
<path d="M1375.58 960.888V1028.18H1345.08V968.437C1345.23 967.787 1345.28 967.137 1345.28 966.437C1345.28 965.737 1345.23 965.087 1345.08 964.437C1344.13 959.688 1339.98 956.088 1334.93 956.088H1183.24C1180.89 955.938 1178.54 955.588 1176.34 955.038C1176.14 954.988 1175.99 954.938 1175.79 954.888C1159.44 950.638 1147.09 936.389 1145.84 919.04V879.242H1176.34V914.89C1176.34 915.04 1176.34 915.19 1176.34 915.34C1176.34 915.49 1176.34 915.64 1176.34 915.79C1176.54 920.74 1180.29 924.839 1185.09 925.539C1185.59 925.639 1186.14 925.639 1186.69 925.639C1187.24 925.639 1187.74 925.589 1188.29 925.539H1342.93C1343.98 925.739 1344.98 925.939 1346.03 926.239C1351.78 927.789 1357.03 930.539 1361.43 934.239C1369.18 940.839 1374.48 950.238 1375.58 960.888Z" fill="#EBE6E2"/>
<path d="M1344.93 635.654H1421.83V666.153H1352.43C1351.78 666.003 1351.13 665.953 1350.43 665.953C1349.73 665.953 1349.08 666.003 1348.43 666.153C1343.68 667.103 1340.08 671.252 1340.08 676.302V843.343C1339.93 845.693 1339.58 848.043 1339.03 850.243C1338.98 850.443 1338.93 850.593 1338.88 850.793C1334.63 867.142 1320.38 879.492 1303.03 880.741H960.05V850.243H1298.93C1299.08 850.243 1299.23 850.243 1299.38 850.243C1299.53 850.243 1299.68 850.243 1299.83 850.243C1304.78 850.043 1308.88 846.293 1309.58 841.493C1309.68 840.994 1309.68 840.444 1309.68 839.894C1309.68 839.344 1309.63 838.844 1309.58 838.294V668.253C1309.78 667.203 1309.98 666.203 1310.28 665.153C1311.83 659.403 1314.58 654.153 1318.28 649.753C1324.83 642.004 1334.28 636.754 1344.93 635.654Z" fill="#EBE6E2"/>
<path d="M1119.24 750.499C1120.94 750.499 1122.34 749.099 1122.34 747.399V715.9C1122.34 714.2 1120.94 712.801 1119.24 712.801C1117.54 712.801 1116.14 714.2 1116.14 715.9V747.399C1116.19 749.099 1117.54 750.499 1119.24 750.499Z" fill="#EBE6E2"/>
<path d="M1095.99 884.741C1097.69 884.741 1099.09 883.342 1099.09 881.642V850.143C1099.09 848.443 1097.69 847.043 1095.99 847.043C1094.29 847.043 1092.89 848.443 1092.89 850.143V881.642C1092.94 883.392 1094.29 884.741 1095.99 884.741Z" fill="#EBE6E2"/>
<path d="M1249.53 883.942C1251.23 883.942 1252.63 882.542 1252.63 880.842V849.343C1252.63 847.644 1251.23 846.244 1249.53 846.244C1247.83 846.244 1246.44 847.644 1246.44 849.343V880.842C1246.44 882.542 1247.83 883.942 1249.53 883.942Z" fill="#EBE6E2"/>
<path d="M1284.83 883.942C1286.53 883.942 1287.93 882.542 1287.93 880.842V849.343C1287.93 847.644 1286.53 846.244 1284.83 846.244C1283.13 846.244 1281.73 847.644 1281.73 849.343V880.842C1281.73 882.542 1283.13 883.942 1284.83 883.942Z" fill="#EBE6E2"/>
<path d="M1179.64 914.39C1179.64 912.69 1178.24 911.29 1176.54 911.29H1145.04C1143.34 911.29 1141.94 912.69 1141.94 914.39C1141.94 916.09 1143.34 917.49 1145.04 917.49H1176.54C1178.24 917.44 1179.64 916.09 1179.64 914.39Z" fill="#EBE6E2"/>
<path d="M1231.74 921.34C1230.04 921.34 1228.64 922.739 1228.64 924.439V955.938C1228.64 957.638 1230.04 959.038 1231.74 959.038C1233.44 959.038 1234.84 957.638 1234.84 955.938V924.439C1234.84 922.739 1233.44 921.34 1231.74 921.34Z" fill="#EBE6E2"/>
<path d="M1305.18 921.34C1303.48 921.34 1302.08 922.739 1302.08 924.439V955.938C1302.08 957.638 1303.48 959.038 1305.18 959.038C1306.88 959.038 1308.28 957.638 1308.28 955.938V924.439C1308.23 922.739 1306.88 921.34 1305.18 921.34Z" fill="#EBE6E2"/>
<path d="M1342.83 799.146C1342.83 797.446 1341.43 796.046 1339.73 796.046H1308.23C1306.53 796.046 1305.13 797.446 1305.13 799.146C1305.13 800.846 1306.53 802.246 1308.23 802.246H1339.73C1341.48 802.246 1342.83 800.846 1342.83 799.146Z" fill="#EBE6E2"/>
<path d="M998.798 758.198C1000.5 758.198 1001.9 756.798 1001.9 755.098V723.6C1001.9 721.9 1000.5 720.5 998.798 720.5C997.098 720.5 995.698 721.9 995.698 723.6V755.098C995.698 756.798 997.098 758.198 998.798 758.198Z" fill="#EBE6E2"/>
<path d="M1342.83 730.25C1342.83 728.55 1341.43 727.15 1339.73 727.15H1308.23C1306.53 727.15 1305.13 728.55 1305.13 730.25C1305.13 731.949 1306.53 733.349 1308.23 733.349H1339.73C1341.48 733.299 1342.83 731.949 1342.83 730.25Z" fill="#EBE6E2"/>
<path d="M1145.99 597.857C1145.99 596.157 1144.59 594.757 1142.89 594.757H1111.39C1109.69 594.757 1108.29 596.157 1108.29 597.857C1108.29 599.557 1109.69 600.957 1111.39 600.957H1142.89C1144.64 600.957 1145.99 599.557 1145.99 597.857Z" fill="#EBE6E2"/>
<path d="M960.05 971.687H994.198C996.548 971.537 998.898 971.187 1001.1 970.637C1001.3 970.587 1001.45 970.537 1001.65 970.487C1018 966.237 1030.35 951.988 1031.6 934.639V879.192H1001.1V930.489C1001.1 930.639 1001.1 930.789 1001.1 930.939C1001.1 931.089 1001.1 931.239 1001.1 931.389C1000.9 936.339 997.148 940.439 992.348 941.139C991.848 941.239 991.298 941.239 990.748 941.239C990.198 941.239 989.698 941.189 989.148 941.139H960V971.687H960.05Z" fill="#EBE6E2"/>
<path d="M1047.05 758.198C1048.75 758.198 1050.15 756.798 1050.15 755.098V723.6C1050.15 721.9 1048.75 720.5 1047.05 720.5C1045.35 720.5 1043.95 721.9 1043.95 723.6V755.098C1043.95 756.798 1045.35 758.198 1047.05 758.198Z" fill="#EBE6E2"/>
<path d="M1145.99 639.704C1145.99 638.004 1144.59 636.604 1142.89 636.604H1111.39C1109.69 636.604 1108.29 638.004 1108.29 639.704C1108.29 641.404 1109.69 642.804 1111.39 642.804H1142.89C1144.64 642.804 1145.99 641.404 1145.99 639.704Z" fill="#EBE6E2"/>
<path d="M1035.15 887.841C1035.15 886.141 1033.75 884.741 1032.05 884.741H1000.55C998.848 884.741 997.448 886.141 997.448 887.841C997.448 889.541 998.848 890.941 1000.55 890.941H1032.05C1033.75 890.941 1035.15 889.541 1035.15 887.841Z" fill="#EBE6E2"/>
</g>
</svg>
