<svg width="136" height="102" viewBox="0 0 136 102" fill="none" xmlns="http://www.w3.org/2000/svg">
<g clip-path="url(#clip0_1_5)">
<path fill-rule="evenodd" clip-rule="evenodd" d="M68.0119 50.286C67.4639 50.286 66.9278 50.3098 66.4036 50.3218C67.6784 45.0623 68.0119 41.3379 68.0119 41.3379C68.0119 41.3379 68.3574 45.0623 69.6202 50.3218C69.0841 50.3098 68.5599 50.286 68.0119 50.286ZM70.2039 52.6183C71.705 58.1038 74.1591 64.7554 78.1381 70.5622C74.8024 70.467 71.4071 70.4075 68 70.3956C64.569 70.4194 61.1976 70.467 57.8619 70.5622C61.829 64.7554 64.295 58.1038 65.808 52.6183C66.5228 52.5826 67.2495 52.5588 68 52.5588C68.7505 52.5588 69.4891 52.5826 70.2039 52.6183ZM72.0505 50.4407C92.4933 51.9638 96.9012 65.041 86.1794 70.8716C96.5081 63.2085 87.8115 54.2961 72.5746 52.7968C74.2067 59.4722 76.5298 65.5289 79.925 70.6336C110.518 71.6688 135.929 75.893 136 75.9049C135.964 76.1905 114.247 73.061 81.2355 72.4899C85 77.4756 89.9439 81.3904 96.4842 83.8179C89.0981 82.1401 83.5823 77.7731 79.4961 72.4423C75.8031 72.3828 71.979 72.3709 68.0119 72.3828C64.0568 72.359 60.2088 72.3828 56.5158 72.4423C52.4296 77.7731 46.9257 82.1282 39.5396 83.8179C46.0561 81.3904 51 77.4756 54.7765 72.4899C21.7533 73.0491 0.0357393 76.1786 0 75.893C0.0953048 75.8692 25.494 71.645 56.075 70.6217C59.4702 65.517 61.7933 59.4603 63.4254 52.7849C48.2123 54.2961 39.5158 63.1966 49.8444 70.8597C39.0988 65.0291 43.5305 51.9638 63.9734 50.4288C67.2495 35.2455 67.2733 17.2183 68.0119 0.5C68.7505 17.2183 68.7505 35.2455 72.0505 50.4407Z" fill="white"/>
<path fill-rule="evenodd" clip-rule="evenodd" d="M0.226379 75.2981L5.65875 61.9591H7.26702V57.9253L16.726 55.9143V53.8082L7.27894 55.8311V53.5226L16.7379 51.4998V49.4055L7.27894 51.4165V49.0842L16.7379 47.0733V44.9909L7.27894 47.0019V38.3631L14.3791 36.84L18.3581 35.9952L22.7302 37.2803L22.7064 30.938L18.6679 29.7481V32.5325H17.2502V35.5549L14.7842 36.0666V27.9989L18.4773 27.3088L29.3658 30.4859V36.959L34.143 38.2798V41.5878L19.061 37.1732V39.8505L20.9552 38.9105V63.4346H21.5985V39.1008L35.2986 43.099V28.225L29.3777 29.5339V14.4934L35.5726 13.4582V23.0727H36.1087V13.4582L49.5228 17.7181V28.939V43.2536L54.4072 42.1827V27.8442L50.5473 28.6891V26.226L54.5501 25.3692L64.5095 28.0584V36.0309H65.5698C65.0932 40.85 64.438 45.5145 63.485 49.941C56.1346 50.5359 50.8452 52.6302 47.5929 55.367C45.7344 56.9139 44.5431 58.6749 43.9713 60.4836C43.3995 62.3042 43.4829 64.1962 44.2334 65.9453C44.9124 67.5874 46.199 69.1224 48.0456 70.4194C23.0519 71.7283 3.07361 74.8459 0.226379 75.2981ZM72.7057 61.6735C71.4548 58.7106 70.4899 55.7835 69.7513 53.1299C69.5011 53.1061 69.2747 53.1061 69.0484 53.1061C68.7505 53.0823 68.3812 53.0823 67.9524 53.0823C67.5354 53.0823 67.178 53.0823 66.8564 53.1061C66.63 53.1061 66.4037 53.1061 66.1773 53.1299C65.4149 55.7835 64.4499 58.7106 63.2229 61.6735C62.0316 64.4579 60.5901 67.3137 58.8508 69.991C60.1731 69.9553 61.5193 69.9315 62.8655 69.9197C64.5571 69.884 66.2607 69.8602 67.9643 69.8602C69.6917 69.8602 71.3953 69.884 73.075 69.9197C74.4212 69.9435 75.7435 69.9553 77.0778 69.991C75.3266 67.3137 73.8851 64.4698 72.7057 61.6735ZM85.9531 70.3361C87.8473 68.9082 89.0386 67.4327 89.6461 65.9929C90.2656 64.4817 90.218 62.9943 89.5866 61.5783C88.9433 60.1504 87.6924 58.7939 85.9531 57.604C82.9629 55.5455 78.5312 54.0105 73.2418 53.4036C74.0161 56.4379 74.9454 59.3532 76.0414 62.1019C77.1969 64.9696 78.555 67.6469 80.1752 70.0862C82.129 70.1576 84.0589 70.2409 85.9531 70.3361ZM49.9517 70.3361C51.8697 70.2409 53.7996 70.1695 55.7295 70.0862C57.3378 67.635 58.7078 64.9458 59.8753 62.1019C60.9713 59.3651 61.9005 56.4498 62.6749 53.4036C57.3735 54.0105 52.9538 55.5455 49.9398 57.604C48.2124 58.7939 46.9615 60.1504 46.3182 61.5783C45.6987 62.9943 45.6391 64.4817 46.2586 65.9929C46.8662 67.4327 48.0813 68.8963 49.9517 70.3361ZM70.2635 35.2217L75.1479 28.1655V19.3126L81.0806 16.4687L87.4422 19.6933V45.0147H88.8837V37.5183L89.944 36.4711H91.1234V48.9533H91.445C91.445 43.4083 91.445 37.8633 91.445 32.3302C91.445 30.5335 97.3777 30.5692 97.3777 32.3302V45.1337L100.368 48.168L103.06 11.5662H103.346C103.346 11.5662 103.918 11.0902 104.8 10.8761C105.693 10.6619 106.205 10.6619 106.503 10.3644C106.801 10.055 107.432 9.48385 108.266 9.41246C109.1 9.35296 109.612 9.97172 110.029 9.91222C110.47 9.87653 110.482 8.04406 111.34 7.4848C112.198 6.92554 112.984 7.57999 114.032 7.54429C115.486 7.4848 114.747 6.66375 116.534 6.72325C118.047 6.75895 118.369 9.49575 118.869 9.55525C119.381 9.61474 119.679 7.60379 121.121 7.62759C123.182 7.62759 126.029 14.4696 122.502 14.4696C120.132 14.4696 121.121 11.4829 120.382 11.7566C120.132 11.8518 119.667 13.3392 118.559 13.3392C117.439 13.3392 117.976 12.4586 117.201 12.4586C116.427 12.4586 116.2 14.2911 114.354 14.2911C113.258 14.2911 112.662 13.4106 112.341 12.5895C111.566 10.6381 105.824 12.2088 104.538 12.7204L108.231 62.447L113.151 62.1614L116.987 38.7796H115.795L112.043 60.8763L110.339 60.9715L114.485 35.7572H128.602L133.546 62.8992L124.98 61.0786V63.1847L133.939 65.0767L134.332 67.3494L124.968 65.3623V67.4684L134.725 69.527L135.786 75.3219C133.32 74.9173 113.151 71.7521 87.8711 70.4313C89.7057 69.1343 90.9804 67.5993 91.6833 65.9572C92.4219 64.1962 92.5172 62.3042 91.9454 60.4955C91.3735 58.6749 90.1703 56.9258 88.3119 55.3789C85.0477 52.6421 79.7702 50.5478 72.4317 49.9529C71.4429 45.2646 70.752 40.3146 70.2635 35.2217ZM55.5866 29.4744L56.8613 29.8433V28.8081L55.5866 28.463V29.4744ZM57.8143 30.0813L59.1009 30.4264V29.3911L57.8143 29.0461V30.0813ZM60.0778 30.7L61.3525 31.0451V30.0099L60.0778 29.6648V30.7ZM62.3056 30.2717V31.3069L63.5922 31.652V30.6167L62.3056 30.2717ZM63.5922 32.3064L62.3056 31.9614V32.9966L63.5922 33.3417V32.3064ZM60.0778 31.3426V32.3778L61.3525 32.7229V31.6877L60.0778 31.3426ZM56.8494 30.4859L55.5747 30.1408V31.1522L56.8494 31.5211V30.4859ZM56.8494 32.1636L55.5747 31.8186V32.8538L56.8494 33.1989V32.1636ZM59.1009 32.7586L57.8143 32.4135V33.4487L59.1009 33.7938V32.7586ZM63.5922 33.9842L62.3056 33.6391V34.6744L63.5922 35.0194V33.9842ZM40.1234 27.1422V18.0393L37.7765 17.2897V26.3925L40.1234 27.1422ZM43.6139 22.9418V19.1579L41.267 18.4082V22.1921L43.6139 22.9418ZM44.7218 19.491V28.5939L47.0687 29.3435V20.2645L44.7218 19.491ZM47.0806 31.2712L37.7765 28.3083V32.2826L47.0806 35.2455V31.2712Z" fill="white"/>
<path d="M34.4884 87.102L39.2894 101.5H34.2383L33.8451 100.31H28.4485L28.0554 101.5H23.0042L27.8052 87.102H34.4884ZM29.6755 96.7165H32.6657L31.1647 92.2306L29.6755 96.7165Z" fill="white"/>
<path d="M48.9271 101.5V100.31H45.3174C44.4954 100.31 43.7092 100.155 42.9825 99.8341C42.2439 99.5128 41.6125 99.0845 41.0645 98.549C40.5165 98.0016 40.0876 97.371 39.7779 96.6332C39.4562 95.8955 39.3013 95.122 39.3013 94.301C39.3013 93.48 39.4562 92.6946 39.7779 91.9688C40.0995 91.231 40.5284 90.6004 41.0645 90.053C41.6125 89.5056 42.2439 89.0773 42.9825 88.7679C43.7211 88.4466 44.4954 88.2919 45.3174 88.2919H48.9271V87.102H53.7519V88.2919H57.3616C58.1836 88.2919 58.9699 88.4466 59.6966 88.7679C60.4352 89.0892 61.0666 89.5175 61.6146 90.053C62.1626 90.6004 62.5914 91.231 62.9012 91.9688C63.2228 92.7065 63.3777 93.48 63.3777 94.301C63.3777 95.122 63.2228 95.9074 62.9012 96.6332C62.5795 97.371 62.1507 98.0016 61.6146 98.549C61.0666 99.0964 60.4352 99.5247 59.6966 99.8341C58.958 100.155 58.1836 100.31 57.3616 100.31H53.7519V101.5H48.9271ZM45.3294 95.5147H48.939V93.0873H45.3294C44.9839 93.0873 44.698 93.2063 44.4597 93.4443C44.2214 93.6823 44.1142 93.9678 44.1142 94.301C44.1142 94.6342 44.2334 94.9198 44.4597 95.1577C44.698 95.3957 44.9839 95.5147 45.3294 95.5147ZM57.3735 95.5147C57.7071 95.5147 57.9811 95.3957 58.2193 95.1577C58.4576 94.9198 58.5648 94.6342 58.5648 94.301C58.5648 93.9678 58.4457 93.6823 58.2193 93.4443C57.9811 93.2063 57.7071 93.0873 57.3735 93.0873H53.7519V95.5147H57.3735Z" fill="white"/>
<path d="M74.4212 101.5V94.6699L69.5964 101.5H64.8073V87.102H69.6083V93.9321L74.4331 87.102H79.2222V101.5H74.4212Z" fill="white"/>
<path d="M86.0603 87.102V91.8974H90.8851V87.102H95.6861V101.5H90.8851V96.7046H86.0603V101.5H81.2593V87.102H86.0603Z" fill="white"/>
<path d="M108.183 87.102L112.984 101.5H107.933L107.54 100.31H102.143L101.75 101.5H96.6987L101.5 87.102H108.183ZM103.358 96.7165H106.348L104.847 92.2306L103.358 96.7165Z" fill="white"/>
</g>
<defs>
<clipPath id="clip0_1_5">
<rect width="136" height="101" fill="white" transform="translate(0 0.5)"/>
</clipPath>
</defs>
</svg>
