<svg width="118" height="94" viewBox="0 0 118 94" fill="none" xmlns="http://www.w3.org/2000/svg">
<g filter="url(#filter0_d_2003_1653)">
<path fill-rule="evenodd" clip-rule="evenodd" d="M14 0C8.47717 0 4 4.47717 4 10V70C4 75.5228 8.47717 80 14 80H55.2694L59 86L62.7306 80H104C109.523 80 114 75.5228 114 70V10C114 4.47717 109.523 0 104 0H14Z" fill="white"/>
</g>
<g clip-path="url(#clip0_2003_1653)">
<path fill-rule="evenodd" clip-rule="evenodd" d="M59.5069 40.0829C59.1886 40.0829 58.8772 40.0968 58.5727 40.1038C59.3132 37.0315 59.5069 34.8558 59.5069 34.8558C59.5069 34.8558 59.7076 37.0315 60.4411 40.1038C60.1297 40.0968 59.8252 40.0829 59.5069 40.0829ZM60.7802 41.4453C61.6522 44.6497 63.0777 48.5353 65.389 51.9274C63.4514 51.8718 61.4791 51.8371 59.5 51.8301C57.507 51.844 55.5486 51.8718 53.611 51.9274C55.9154 48.5353 57.3478 44.6497 58.2267 41.4453C58.6419 41.4245 59.064 41.4106 59.5 41.4106C59.936 41.4106 60.365 41.4245 60.7802 41.4453ZM61.8528 40.1733C73.7277 41.063 76.2882 48.7022 70.0601 52.1082C76.0598 47.6317 71.0081 42.4254 62.1573 41.5496C63.1054 45.4491 64.4548 48.9872 66.427 51.9691C84.1979 52.5739 98.9585 55.0415 99 55.0484C98.9792 55.2152 86.3639 53.3871 67.1882 53.0535C69.375 55.966 72.2468 58.2528 76.046 59.6708C71.7555 58.6907 68.5515 56.1397 66.1779 53.0257C64.0327 52.9909 61.8113 52.984 59.5069 52.9909C57.2094 52.977 54.9742 52.9909 52.829 53.0257C50.4554 56.1397 47.2583 58.6838 42.9679 59.6708C46.7532 58.2528 49.625 55.966 51.8187 53.0535C32.6361 53.3802 20.0208 55.2083 20 55.0415C20.0554 55.0276 34.809 52.56 52.573 51.9622C54.5452 48.9802 55.8946 45.4422 56.8427 41.5426C48.0057 42.4254 42.954 47.6248 48.9537 52.1012C42.7118 48.6952 45.2861 41.063 57.161 40.1664C59.064 31.2969 59.0779 20.7661 59.5069 11C59.936 20.7661 59.936 31.2969 61.8528 40.1733Z" fill="#2B160E"/>
<path fill-rule="evenodd" clip-rule="evenodd" d="M20.1316 54.6939L23.2872 46.9018H24.2214V44.5455L29.7159 43.3707V42.1404L24.2283 43.3221V41.9736L29.7229 40.7919V39.5685L24.2283 40.7433V39.3809L29.7229 38.2062V36.9897L24.2283 38.1644V33.118L28.3527 32.2283L30.664 31.7348L33.2037 32.4855L33.1898 28.7806L30.8439 28.0855V29.712H30.0204V31.4776L28.588 31.7765V27.0637L30.7332 26.6606L37.0582 28.5165V32.2978L39.8332 33.0694V35.0017L31.0723 32.4229V33.9869L32.1726 33.4378V47.7638H32.5463V33.549L40.5044 35.8845V27.1958L37.0651 27.9604V19.1743L40.6636 18.5696V24.186H40.975V18.5696L48.767 21.0581V27.6128V35.9749L51.6043 35.3493V26.9734L49.3621 27.4669V26.028L51.6873 25.5275L57.4725 27.0985V31.7556H58.0884C57.8116 34.5708 57.431 37.2956 56.8774 39.8813C52.6077 40.2289 49.5351 41.4523 47.646 43.051C46.5664 43.9546 45.8744 44.9834 45.5422 46.0399C45.2101 47.1034 45.2585 48.2086 45.6945 49.2304C46.0889 50.1897 46.8363 51.0863 47.9089 51.844C33.3905 52.6086 21.7855 54.4298 20.1316 54.6939ZM62.2336 46.735C61.5069 45.0042 60.9464 43.2943 60.5174 41.7442C60.372 41.7303 60.2406 41.7303 60.1091 41.7303C59.9361 41.7164 59.7216 41.7164 59.4724 41.7164C59.2302 41.7164 59.0226 41.7164 58.8358 41.7303C58.7043 41.7303 58.5728 41.7303 58.4413 41.7442C57.9984 43.2943 57.4379 45.0042 56.7251 46.735C56.0331 48.3615 55.1958 50.0298 54.1855 51.5938C54.9536 51.5729 55.7356 51.559 56.5175 51.5521C57.5002 51.5312 58.4898 51.5173 59.4793 51.5173C60.4828 51.5173 61.4723 51.5312 62.4481 51.5521C63.23 51.566 63.9982 51.5729 64.7732 51.5938C63.756 50.0298 62.9186 48.3685 62.2336 46.735ZM69.9287 51.7953C71.029 50.9612 71.721 50.0993 72.074 49.2582C72.4338 48.3755 72.4061 47.5066 72.0393 46.6794C71.6657 45.8453 70.9391 45.0529 69.9287 44.3578C68.1918 43.1553 65.6175 42.2586 62.545 41.9041C62.9948 43.6766 63.5345 45.3796 64.1712 46.9853C64.8424 48.6604 65.6313 50.2244 66.5725 51.6494C67.7074 51.6911 68.8284 51.7397 69.9287 51.7953ZM49.0161 51.7953C50.1303 51.7397 51.2513 51.698 52.3724 51.6494C53.3066 50.2175 54.1024 48.6465 54.7806 46.9853C55.4172 45.3865 55.957 43.6835 56.4068 41.9041C53.3274 42.2586 50.76 43.1553 49.0092 44.3578C48.0058 45.0529 47.2792 45.8453 46.9055 46.6794C46.5457 47.5066 46.5111 48.3755 46.8709 49.2582C47.2238 50.0993 47.9297 50.9543 49.0161 51.7953ZM60.8149 31.283L63.6522 27.161V21.9895L67.0984 20.3282L70.7937 22.2119V37.0036H71.6311V32.6245L72.247 32.0128H72.932V39.3044H73.1189C73.1189 36.0652 73.1189 32.8261 73.1189 29.5939C73.1189 28.5443 76.5651 28.5651 76.5651 29.5939V37.0731L78.3021 38.8456L79.866 17.4644H80.0321C80.0321 17.4644 80.3642 17.1864 80.8763 17.0612C81.3953 16.9361 81.6929 16.9361 81.8659 16.7623C82.0389 16.5816 82.4057 16.248 82.8901 16.2063C83.3745 16.1715 83.6721 16.533 83.9143 16.4982C84.1703 16.4774 84.1772 15.4069 84.6755 15.0802C85.1737 14.7535 85.6304 15.1358 86.2394 15.115C87.0837 15.0802 86.6546 14.6006 87.6926 14.6353C88.5715 14.6562 88.7583 16.2549 89.049 16.2897C89.3465 16.3244 89.5196 15.1497 90.3569 15.1636C91.5541 15.1636 93.208 19.1604 91.1596 19.1604C89.7825 19.1604 90.3569 17.4157 89.9278 17.5756C89.7825 17.6312 89.5126 18.5001 88.8691 18.5001C88.2186 18.5001 88.53 17.9857 88.0802 17.9857C87.6304 17.9857 87.4989 19.0562 86.4263 19.0562C85.7896 19.0562 85.4436 18.5418 85.2568 18.0622C84.807 16.9222 81.4715 17.8398 80.7241 18.1386L82.8693 47.1868L85.7273 47.02L87.9556 33.3613H87.2636L85.0838 46.2693L84.0942 46.3249L86.5024 31.5958H94.7027L97.5746 47.451L92.599 46.3875V47.6178L97.8029 48.723L98.0313 50.0506L92.5921 48.8898V50.1201L98.2597 51.3227L98.8755 54.7078C97.4431 54.4715 85.7273 52.6225 71.0429 51.8509C72.1085 51.0933 72.849 50.1966 73.2573 49.2374C73.6863 48.2086 73.7417 47.1034 73.4095 46.0469C73.0774 44.9834 72.3784 43.9616 71.2989 43.0579C69.4028 41.4592 66.3372 40.2358 62.0744 39.8883C61.5 37.1496 61.0987 34.258 60.8149 31.283ZM52.2894 27.9256L53.0298 28.1411V27.5364L52.2894 27.3348V27.9256ZM53.5834 28.2801L54.3308 28.4817V27.877L53.5834 27.6754V28.2801ZM54.8982 28.6416L55.6387 28.8432V28.2384L54.8982 28.0369V28.6416ZM56.1923 28.3914V28.9961L56.9397 29.1977V28.5929L56.1923 28.3914ZM56.9397 29.58L56.1923 29.3784V29.9831L56.9397 30.1847V29.58ZM54.8982 29.0169V29.6217L55.6387 29.8233V29.2185L54.8982 29.0169ZM53.0229 28.5165L52.2824 28.3149V28.9057L53.0229 29.1212V28.5165ZM53.0229 29.4966L52.2824 29.295V29.8997L53.0229 30.1013V29.4966ZM54.3308 29.8441L53.5834 29.6425V30.2473L54.3308 30.4488V29.8441ZM56.9397 30.5601L56.1923 30.3585V30.9632L56.9397 31.1648V30.5601ZM43.307 26.5632V21.2457L41.9438 20.8078V26.1253L43.307 26.5632ZM45.3346 24.1095V21.8991L43.9714 21.4612V23.6716L45.3346 24.1095ZM45.9782 22.0938V27.4113L47.3415 27.8492V22.5456L45.9782 22.0938ZM47.3484 28.9752L41.9438 27.2444V29.5661L47.3484 31.2969V28.9752Z" fill="#2B160E"/>
<path d="M40.0338 61.5893L42.8226 70H39.8885L39.6601 69.3049H36.5253L36.2969 70H33.3628L36.1516 61.5893H40.0338ZM37.2381 67.2057H38.975L38.1031 64.5852L37.2381 67.2057Z" fill="#2B160E"/>
<path d="M48.421 70V69.3049H46.3242C45.8468 69.3049 45.39 69.2145 44.9679 69.0269C44.5389 68.8392 44.1721 68.5889 43.8538 68.2761C43.5354 67.9564 43.2863 67.588 43.1064 67.157C42.9196 66.7261 42.8296 66.2743 42.8296 65.7946C42.8296 65.315 42.9196 64.8563 43.1064 64.4323C43.2932 64.0013 43.5424 63.6329 43.8538 63.3131C44.1721 62.9934 44.5389 62.7432 44.9679 62.5624C45.397 62.3748 45.8468 62.2844 46.3242 62.2844H48.421V61.5893H51.2237V62.2844H53.3205C53.798 62.2844 54.2547 62.3748 54.6768 62.5624C55.1059 62.7501 55.4726 63.0003 55.791 63.3131C56.1093 63.6329 56.3584 64.0013 56.5383 64.4323C56.7252 64.8632 56.8151 65.315 56.8151 65.7946C56.8151 66.2743 56.7252 66.733 56.5383 67.157C56.3515 67.588 56.1024 67.9564 55.791 68.2761C55.4726 68.5959 55.1059 68.8461 54.6768 69.0269C54.2478 69.2145 53.798 69.3049 53.3205 69.3049H51.2237V70H48.421ZM46.3312 66.5036H48.428V65.0856H46.3312C46.1305 65.0856 45.9644 65.1552 45.826 65.2942C45.6876 65.4332 45.6253 65.6 45.6253 65.7946C45.6253 65.9893 45.6945 66.1561 45.826 66.2951C45.9644 66.4341 46.1305 66.5036 46.3312 66.5036ZM53.3274 66.5036C53.5212 66.5036 53.6803 66.4341 53.8187 66.2951C53.9571 66.1561 54.0194 65.9893 54.0194 65.7946C54.0194 65.6 53.9502 65.4332 53.8187 65.2942C53.6803 65.1552 53.5212 65.0856 53.3274 65.0856H51.2237V66.5036H53.3274Z" fill="#2B160E"/>
<path d="M63.23 70V66.0101L60.4274 70H57.6455V61.5893H60.4343V65.5792L63.237 61.5893H66.0188V70H63.23Z" fill="#2B160E"/>
<path d="M69.991 61.5893V64.3905H72.7936V61.5893H75.5824V70H72.7936V67.1987H69.991V70H67.2021V61.5893H69.991Z" fill="#2B160E"/>
<path d="M82.8416 61.5893L85.6304 70H82.6963L82.468 69.3049H79.3331L79.1048 70H76.1707L78.9595 61.5893H82.8416ZM80.039 67.2057H81.7759L80.904 64.5852L80.039 67.2057Z" fill="#2B160E"/>
</g>
<defs>
<filter id="filter0_d_2003_1653" x="0" y="0" width="118" height="94" filterUnits="userSpaceOnUse" color-interpolation-filters="sRGB">
<feFlood flood-opacity="0" result="BackgroundImageFix"/>
<feColorMatrix in="SourceAlpha" type="matrix" values="0 0 0 0 0 0 0 0 0 0 0 0 0 0 0 0 0 0 127 0" result="hardAlpha"/>
<feOffset dy="4"/>
<feGaussianBlur stdDeviation="2"/>
<feComposite in2="hardAlpha" operator="out"/>
<feColorMatrix type="matrix" values="0 0 0 0 0 0 0 0 0 0 0 0 0 0 0 0 0 0 0.1 0"/>
<feBlend mode="normal" in2="BackgroundImageFix" result="effect1_dropShadow_2003_1653"/>
<feBlend mode="normal" in="SourceGraphic" in2="effect1_dropShadow_2003_1653" result="shape"/>
</filter>
<clipPath id="clip0_2003_1653">
<rect width="79" height="59" fill="white" transform="translate(20 11)"/>
</clipPath>
</defs>
</svg>
