<svg width="21" height="22" viewBox="0 0 21 22" fill="none" xmlns="http://www.w3.org/2000/svg">
<g clip-path="url(#clip0_182_1367)">
<path d="M20.9943 10.0979C20.9917 10.0581 20.9842 10.02 20.9711 9.98238C20.9663 9.96838 20.9628 9.95481 20.9567 9.94125C20.9357 9.89575 20.909 9.85287 20.8722 9.81656L20.8718 9.81612L18.375 7.31888V4.875C18.375 4.86538 18.3702 4.85706 18.3693 4.84744C18.3667 4.80894 18.3593 4.77175 18.347 4.735C18.3422 4.721 18.3387 4.70744 18.3321 4.69388C18.3107 4.6475 18.284 4.60331 18.2464 4.56569L14.3089 0.628188C14.2713 0.590563 14.2271 0.563437 14.1802 0.542C14.1671 0.536313 14.154 0.532375 14.1409 0.528C14.1032 0.514875 14.0647 0.507438 14.0254 0.504812C14.0166 0.504375 14.0087 0.5 14 0.5H3.0625C2.821 0.5 2.625 0.696 2.625 0.9375V7.31888L0.128188 9.81569L0.127313 9.81656C0.0905625 9.85331 0.0643125 9.89619 0.0433125 9.94125C0.0371875 9.95481 0.0336875 9.96838 0.028875 9.98238C0.01575 10.02 0.007875 10.0581 0.0056875 10.0979C0.0048125 10.1075 0 10.1154 0 10.125V18.4375C0 18.679 0.196 18.875 0.4375 18.875H2.625V21.0625C2.625 21.304 2.821 21.5 3.0625 21.5H17.9375C18.179 21.5 18.375 21.304 18.375 21.0625V18.875H20.5625C20.804 18.875 21 18.679 21 18.4375V10.125C21 10.1154 20.9952 10.1075 20.9943 10.0979ZM19.5064 9.6875H18.375V8.55612L19.5064 9.6875ZM16.8814 4.4375H14.4375V1.99363L16.8814 4.4375ZM3.5 1.375H13.5625V4.875C13.5625 5.1165 13.7585 5.3125 14 5.3125H17.5V7.5V9.6875H3.5V7.5V1.375ZM2.625 8.55612V9.6875H1.49363L2.625 8.55612ZM17.5 20.625H3.5V18.875H17.5V20.625ZM20.125 18H0.875V10.5625H3.0625H17.9375H20.125V18Z" fill="#3D3C3C"/>
<path d="M7.98566 12.19C7.84434 12.0688 7.68466 11.9831 7.50572 11.9336C7.32722 11.8842 7.15353 11.8592 6.98509 11.8592H5.52734V17.125H6.40497V15.0127H7.02972C7.21303 15.0127 7.39153 14.9804 7.56522 14.9161C7.73891 14.8517 7.89247 14.7524 8.02634 14.6186C8.16022 14.4847 8.26784 14.3176 8.35009 14.1163C8.43191 13.9155 8.47303 13.6814 8.47303 13.4137C8.47303 13.1162 8.42709 12.8681 8.33522 12.6699C8.24334 12.4717 8.12697 12.3116 7.98566 12.19ZM7.42434 14.0647C7.29047 14.2108 7.11941 14.2839 6.91116 14.2839H6.40541V12.6104H6.91116C7.11941 12.6104 7.29047 12.6747 7.42434 12.8038C7.55822 12.9329 7.62516 13.1385 7.62516 13.4211C7.62516 13.7037 7.55822 13.9181 7.42434 14.0647Z" fill="#3D3C3C"/>
<path d="M13.4414 17.125H14.3413V14.864H15.6875V14.0979H14.3343V12.6625H15.7991V11.8592H13.4414V17.125Z" fill="#3D3C3C"/>
<path d="M10.5329 11.8592H9.20898V17.125H10.5254C11.2049 17.125 11.7194 16.8957 12.0689 16.4372C12.4185 15.9783 12.593 15.3326 12.593 14.4996C12.593 13.6666 12.4185 13.0182 12.0689 12.5544C11.7194 12.0911 11.2075 11.8592 10.5329 11.8592ZM11.6152 15.3063C11.5584 15.5373 11.4774 15.7294 11.3737 15.8829C11.2696 16.0365 11.1458 16.152 11.0019 16.2286C10.8579 16.3056 10.7017 16.3441 10.5333 16.3441H10.1094V12.6402H10.5333C10.7017 12.6402 10.8579 12.6787 11.0019 12.7557C11.1458 12.8322 11.2696 12.9477 11.3737 13.1013C11.4779 13.2549 11.5584 13.4482 11.6152 13.6814C11.6721 13.9146 11.701 14.1872 11.701 14.4996C11.701 14.8071 11.6721 15.0757 11.6152 15.3063Z" fill="#3D3C3C"/>
</g>
<defs>
<clipPath id="clip0_182_1367">
<rect width="21" height="21" fill="white" transform="translate(0 0.5)"/>
</clipPath>
</defs>
</svg>
