<svg width="89" height="89" viewBox="0 0 89 89" fill="none" xmlns="http://www.w3.org/2000/svg">
<g clip-path="url(#clip0_125_597)">
<path d="M44.5 89C69.0767 89 89 69.0767 89 44.5C89 19.9233 69.0767 0 44.5 0C19.9233 0 0 19.9233 0 44.5C0 69.0767 19.9233 89 44.5 89Z" fill="white"/>
<path d="M58.3154 41.3704L39.6147 28.5471C38.7751 27.9364 37.8592 27.6311 37.1722 27.6311C35.7219 27.6311 34.8823 28.776 34.8823 30.6079V58.3155C34.8823 60.2237 35.7219 61.2923 37.0959 61.2923C37.8592 61.2923 38.6988 60.987 39.5384 60.3764L58.2391 47.5531C59.4604 46.7134 60.1473 45.6448 60.1473 44.4236C60.1473 43.2023 59.5367 42.21 58.3154 41.3704Z" fill="#2B160E"/>
</g>
<defs>
<clipPath id="clip0_125_597">
<rect width="89" height="89" fill="white"/>
</clipPath>
</defs>
</svg>
