<svg width="21" height="12" viewBox="0 0 21 12" fill="none" xmlns="http://www.w3.org/2000/svg">
<g clip-path="url(#clip0_2001_84)">
<path d="M0.691231 2.2098C0.523046 1.77767 0.308143 1.32715 0.81737 1.0835C1.84984 1.06971 2.88231 1.05592 3.91945 1.04213C4.36794 1.05592 4.5735 1.38232 4.81176 1.83743C5.50786 3.15681 6.23199 4.47159 7.10562 5.68064C7.3906 6.07599 7.8718 6.2277 8.25021 5.59789C8.29226 4.74742 8.33431 3.89695 8.37635 3.04648C8.2362 2.0581 7.88581 1.47426 7.27381 1.4145C6.92342 1.07891 7.1757 0.80308 7.96056 0.655971C9.20793 0.393935 10.2965 0.51346 11.2542 0.632986C12.0624 0.683554 12.1792 1.22142 12.1652 1.83743C12.1372 2.96373 12.1138 4.09463 12.1138 5.22092C12.3521 6.36561 12.9874 5.9059 13.4079 5.40941C14.16 4.35666 14.8141 3.3315 15.3607 2.17762C15.926 0.991562 16.0802 1.07891 16.4773 1.07431C17.4256 1.06971 18.4721 1.02374 19.229 1.05132C20.808 0.959382 20.6258 1.64895 20.182 2.3799C19.4158 3.6533 18.4301 4.80258 17.5518 6.01623C17.0192 6.72878 17.0285 7.17471 17.5938 7.56086C18.4301 8.4665 19.3364 9.31237 20.0979 10.2778C20.9248 11.3305 20.3175 11.6201 19.5466 11.6983C18.6263 11.6983 17.7059 11.6983 16.7856 11.6983C16.0007 11.7121 15.2906 11.519 14.7907 10.6961C13.6368 9.19285 12.7772 8.7791 12.4315 9.62498C12.282 9.99734 12.1558 10.4984 12.1605 10.9857C12.1652 11.6661 11.7494 11.7213 11.1841 11.7397C10.5768 11.7397 9.94608 11.8868 9.35743 11.7397C7.27381 11.2202 5.27427 10.264 3.32613 6.97703C2.44783 5.55651 1.56953 4.00268 0.691231 2.2098Z" fill="white"/>
</g>
<defs>
<clipPath id="clip0_2001_84">
<rect width="20" height="11.3043" fill="white" transform="translate(0.5 0.5)"/>
</clipPath>
</defs>
</svg>
