<svg width="21" height="21" viewBox="0 0 21 21" fill="none" xmlns="http://www.w3.org/2000/svg">
<path d="M19.6667 8.58333C19.6667 7.41667 19.4167 6.16667 18.9167 5.16667C18.5834 4.75 18.0834 4.41667 17.5 4.33333C15.1667 4.08333 12.8334 4 10.5 4.08333C8.16669 4.08333 5.83335 4.16667 3.58335 4.33333C3.08335 4.41667 2.66669 4.58333 2.33335 4.91667C1.58335 5.58333 1.50002 6.83333 1.41669 7.75C1.33335 9.58333 1.33335 11.3333 1.41669 13.1667C1.41669 13.75 1.50002 14.25 1.66669 14.8333C1.75002 15.25 2.00002 15.6667 2.25002 16C2.58335 16.3333 3.00002 16.5833 3.50002 16.6667C5.33335 16.9167 7.08335 17 8.91669 16.9167C11.8334 16.9167 14.4167 16.9167 17.4167 16.6667C17.9167 16.5833 18.3334 16.3333 18.6667 16C18.9167 15.75 19.0834 15.5 19.1667 15.1667C19.5 14.25 19.5834 13.3333 19.5834 12.3333C19.6667 11.9167 19.6667 9.08333 19.6667 8.58333ZM8.58335 12.9167V7.75L13.5 10.3333C12.1667 11.0833 10.3334 11.9167 8.58335 12.9167Z" fill="white"/>
</svg>
